<svg xmlns="http://www.w3.org/2000/svg" width="54.096" height="51.127" viewBox="0 0 54.096 51.127">
  <g id="Academies" transform="translate(0 -0.001)">
    <path id="Path_6427" data-name="Path 6427" d="M53.69,181.267h2.094l.124-2.288,2.642-.17v-22h6.881v21.981h5.614V156.813H78.02v22.008h5.5v-22H90.5v22h5.554v-1.6c0-6.362.029-12.727-.026-19.089-.009-1.145.34-1.475,1.453-1.422,1.791.083,3.59.022,5.517.022v22.139h2.633c.041.822.075,1.521.116,2.341l2.041.128v5.073H53.69Z" transform="translate(-53.69 -135.279)" fill="#ffb41a"/>
    <path id="Path_6428" data-name="Path 6428" d="M63.26,44.975c.464-.318.636-.456.825-.563q11.876-6.718,23.772-13.407a1.881,1.881,0,0,1,1.548-.083q12.032,6.721,24.007,13.541a7.684,7.684,0,0,1,.68.51Z" transform="translate(-61.632 -30.79)" fill="#ffb41a"/>
    <path id="Path_6429" data-name="Path 6429" d="M62.06,128.54v-3.88h51.272v3.88Z" transform="translate(-60.636 -108.69)" fill="#ffb41a"/>
  </g>
</svg>
