<svg id="Layer_1" data-name="Layer 1" xmlns="http://www.w3.org/2000/svg" viewBox="0 0 561.1 819.62"><path d="M501.74,161c9.2,3.43,18,6.4,26.58,10,8.09,3.43,15.81,7.72,23.83,11.34a41.69,41.69,0,0,0,35.8,0c10.14-4.61,20.11-9.6,30.21-14.3a87.93,87.93,0,0,1,9.31-3.56c12.68-4.21,23.6-1.23,32.39,8.69a184.85,184.85,0,0,1,11.79,15.32c3.3,4.6,6.47,9.33,9.35,14.21,9.77,16.52,24.5,23.85,43.33,24.44a277.43,277.43,0,0,1,29.8,2.38c18.08,2.52,26.86,11.1,29.36,29.05,1.73,12.38,2.39,24.9,3.35,37.37,1.1,14.27,7.78,25.16,19.44,33.18,9.83,6.76,20,13.12,29.39,20.38,15.43,11.88,18.49,23.87,10.91,41.8-4.26,10.07-9.23,19.85-14.12,29.64-7.45,14.91-7.3,29.65.13,44.52,4.81,9.61,9.72,19.21,13.86,29.11,7.77,18.6,4.6,30.24-11.48,42.63a210.29,210.29,0,0,1-22.3,15.16c-18.3,10.69-26.74,26.51-26.88,47.49a199,199,0,0,1-2.26,27.45c-2.65,18.24-11.37,26.94-29.77,29.36-12.58,1.66-25.31,2.2-38,3.39-12.33,1.16-22.46,6.48-29.74,16.65C681.5,683,677.2,689.56,672.71,696c-3.25,4.64-6.35,9.42-10,13.75-11.87,14.21-22.76,17.14-40.06,10.18a279.34,279.34,0,0,1-27.52-13.11c-16.92-9-33.48-8.93-50.4.05a278.59,278.59,0,0,1-29.19,13.68c-15.54,6.06-26.32,3.08-37.23-9.54a170.56,170.56,0,0,1-10.46-14.12c-3.36-4.81-6.63-9.69-9.71-14.68-9.3-15.1-23-22.33-40.47-23-8.21-.32-16.41-.85-24.6-1.54-25.78-2.17-35.72-12.22-37.76-38-.78-9.94-1.5-19.88-2.23-29.83-1-14-7.74-24.79-19.21-32.68-6.61-4.54-13.35-8.88-19.95-13.43-3.86-2.66-7.73-5.36-11.3-8.38-13.35-11.3-16.42-22.5-9.87-38.66,4.11-10.12,9-20,14-29.69,8.27-16,8.32-31.76.06-47.76-4.66-9-9.23-18.13-13.2-27.47-7.8-18.34-4.83-30.14,10.79-42.33a237.4,237.4,0,0,1,24.18-16.55c17-10.15,25.1-25,25.47-44.61.14-7.42.73-14.84,1.32-22.25,2-25.29,12.28-35.56,37.55-37.57q14.91-1.18,29.84-2.2c14.53-1,25.5-7.92,33.56-19.81,5.82-8.57,11.41-17.32,17.53-25.67,3.21-4.37,6.84-8.79,11.21-11.85C489.84,165.56,495.69,163.77,501.74,161ZM782.32,442.54c-.73-117.68-96-212.31-213.16-211.77-117.55.54-212.28,96.42-211.48,214,.8,116.75,96.6,211.09,213.74,210.47C688,654.65,783,558.74,782.32,442.54Z" transform="translate(-289.45 -161)"/><path d="M828.74,922.5c-9.86-3.28-18.68-6.18-27.49-9.13-19.64-6.6-39.32-13.08-58.87-19.94-4.17-1.46-5.74-.46-7.5,3.29C723,922.22,710.79,947.61,698.7,973c-1,2.09-2,4.17-3.66,7.56L584.67,723.34c3.43,1.58,5.54,2.58,7.68,3.52,10.37,4.54,20.45,10,31.18,13.39,18.6,6,35.36,1.37,48.8-12.76,6.42-6.75,11.65-14.66,17.2-22.2,3.83-5.19,7.29-10.65,10.91-16,4.5-6.63,10.86-9.62,18.74-10.5,4.1-.46,5.76.75,7.33,4.44,15.27,36,30.75,71.89,46.17,107.82q27,62.79,53.9,125.58C827.24,918.18,827.75,919.79,828.74,922.5Z" transform="translate(-289.45 -161)"/><path d="M558.07,722.19,443.63,980.62c-13.54-30.13-26.57-59.11-39.89-88.76l-92.89,30.61c.68-2.14,1-3.52,1.53-4.78q51.62-117,103.17-234c1.87-4.25,4.08-5.33,8.44-4.46,6.08,1.19,11.07,3.84,14.6,8.91,5.81,8.34,11.45,16.8,17.26,25.14,2.35,3.37,4.82,6.66,7.48,9.78,16.4,19.22,36.63,24.46,60.11,15.06,9.6-3.84,18.77-8.76,28.14-13.17C553.26,724.17,555,723.5,558.07,722.19Z" transform="translate(-289.45 -161)"/><path d="M718.46,408.94c-10.73,11.36-21.38,23-32.47,34.28-12,12.12-24.2,23.93-36.56,35.62-2.94,2.78-3.76,5.41-3.08,9.25,5.33,30.42,10.51,60.87,15.74,91.31.35,2,.64,4.09,1.12,7.13-15.68-8.21-30.36-15.9-45-23.6s-29.13-15.18-43.58-23c-3.31-1.79-5.87-1.77-9.2,0q-42,22.27-84.08,44.24c-1.16.61-2.42,1-4.48,1.88,1.93-11.48,3.7-22.21,5.54-32.94,3.7-21.58,7.36-43.17,11.22-64.72.73-4.07-.15-6.79-3.23-9.75C467.82,457,445.48,435,423.09,413.17c-1.07-1.05-2-2.24-3.58-4,13.52-2,26.22-3.91,38.93-5.76,19.93-2.89,39.86-5.83,59.81-8.55,3.71-.51,5.78-2.06,7.43-5.45,13.46-27.58,27.11-55.07,40.72-82.59.94-1.91,2-3.79,3.49-6.72,1.39,2.44,2.48,4.12,3.36,5.91,13.43,27.16,26.94,54.28,40.12,81.57,2.3,4.76,5.15,6.88,10.4,7.6,30.42,4.15,60.78,8.66,91.17,13.07C716.47,408.43,718,408.84,718.46,408.94Z" transform="translate(-289.45 -161)"/></svg>