<svg xmlns="http://www.w3.org/2000/svg" width="14.443" height="22.998" viewBox="0 0 14.443 22.998">
  <path id="Archery" d="M5.407,14.955l-.379,4.657c-.065.8-.126,1.6-.2,2.4-.037.413-.2.54-.609.5C4.146,22.5,4.071,22.5,4,22.5a.47.47,0,0,1-.49-.529c.029-1.164.07-2.329.091-3.493q.084-4.629.159-9.258a.328.328,0,0,0-.159-.3Q2.3,7.958,1.018,6.988C.874,6.879.735,6.762.6,6.643a.741.741,0,0,1-.21-.885A.778.778,0,0,1,1.2,5.3c.828.083,1.656.159,2.505.244A1.75,1.75,0,0,1,4.758,3.837a1.706,1.706,0,0,1,1.966.384l3-3.877-.4-.815c.244.012.416.015.587.032.04,0,.082.053.111.091.227.292.423.608.677.875a8.986,8.986,0,0,1,2.272,4.757c.048.275.075.553.115.853.557.076,1.184-.15,1.673.325-.471.47-1.09.265-1.671.323-.023.286-.034.57-.069.853a9.05,9.05,0,0,1-2.314,5.119c-.279.3-.525.64-.818,1H9.384a1.875,1.875,0,0,1,.418-.876L7.116,9.312v.281l.212,11.187c.007.394.019.787.024,1.18,0,.357-.144.515-.494.536a1.053,1.053,0,0,0-.159.011c-.5.106-.646-.18-.676-.575-.134-1.764-.286-3.528-.431-5.292-.038-.46-.073-.92-.111-1.38-.008-.1-.023-.206-.034-.309Zm7.1-8.809A8.688,8.688,0,0,0,10.151.8C9.124,2.118,8.126,3.4,7.131,4.688a.21.21,0,0,0-.049.159,1.983,1.983,0,0,1-.042,1.3ZM10.236,12.4a7.786,7.786,0,0,0,1.89-3.344H7.713Zm2.271-5.663h-.284c-1.777,0-3.554.007-5.331-.007A1,1,0,0,0,6.178,7a2.1,2.1,0,0,1,.194.259.484.484,0,0,0,.5.253c1.383-.01,2.767,0,4.151,0h1.432c.016-.225.032-.478.051-.768Zm-6.733.769c-.128-.222-.249-.362-.5-.359-.37,0-.741-.029-1.115-.05-.129-.007-.257-.026-.386-.04l-.022.058c.212.13.415.342.641.37A10.6,10.6,0,0,0,5.775,7.506Z" transform="translate(-0.321 0.47)"/>
</svg>
