<svg xmlns="http://www.w3.org/2000/svg" width="62.17" height="71.481" viewBox="0 0 62.17 71.481">
  <g id="Athletes" transform="translate(0 0)">
    <path id="Path_6420" data-name="Path 6420" d="M122.234,120.465l5,1.814c1.772.647,3.562,1.28,5.336,1.936a4,4,0,0,1,2.941,3.641,4.915,4.915,0,0,1-1.07,3.356L123.452,145.85c-.372.5-.729,1.008-1.125,1.486a3.572,3.572,0,0,1-3.657,1.462,3.079,3.079,0,0,1-2.306-3.9,5.837,5.837,0,0,1,.773-1.632c2.658-4,5.36-7.994,8.044-11.989.1-.142.188-.286.317-.481-.565-.162-1.085-.312-1.608-.458L112.663,127.2a4.639,4.639,0,0,1-3.7-3.849,6.526,6.526,0,0,1,.733-4.113q3.1-6.1,6.215-12.206c.109-.221.221-.43.348-.7-.977-.131-1.887-.257-2.8-.377-2.093-.272-4.184-.549-6.277-.806a1.55,1.55,0,0,0-.784.113q-4.74,2.08-9.471,4.188a3.612,3.612,0,0,1-2.275.339,2.549,2.549,0,0,1-1.55-4.064,3.942,3.942,0,0,1,1.238-1.054c3.6-1.934,7.225-3.832,10.853-5.737a5.026,5.026,0,0,1,2.793-.41c4.352.315,8.707.618,13.068.944a39.1,39.1,0,0,1,4.264.443,8.417,8.417,0,0,1,4.678,2.647,5.832,5.832,0,0,1,.629,7.595c-.935,1.367-2.051,2.611-3.1,3.9-1.63,1.993-3.274,3.969-4.913,5.954Z" transform="translate(-89.648 -86.101)" fill="#f37022"/>
    <path id="Path_6421" data-name="Path 6421" d="M105.469,225.387c-.248.633-.485,1.236-.72,1.838-1.152,2.946-2.317,5.885-3.444,8.842a6.966,6.966,0,0,1-1.993,2.826c-1.976,1.734-3.878,3.544-5.81,5.34l-8.153,7.531a4.218,4.218,0,0,1-2.527,1.223,3.116,3.116,0,0,1-3.189-4.335A5.231,5.231,0,0,1,80.7,247.1c4.055-4.208,8.135-8.381,12.2-12.576a1.954,1.954,0,0,0,.443-.764q1.894-6.149,3.765-12.308c.038-.122.078-.246.122-.383.042.029.091.042.106.073a5.68,5.68,0,0,0,3.776,3.012c1.3.374,2.611.735,3.918,1.107A4.024,4.024,0,0,1,105.469,225.387Z" transform="translate(-79.377 -181.523)" fill="#f37022"/>
    <path id="Path_6422" data-name="Path 6422" d="M252.993,57.05A7.265,7.265,0,1,1,260.26,49.8,7.265,7.265,0,0,1,252.993,57.05Z" transform="translate(-208.885 -42.52)" fill="#f37022"/>
    <path id="Path_6423" data-name="Path 6423" d="M264.14,138.386c1.843-2.033,3.112-4.257,2.791-7.218l5.71,5.537.443-.259q3.838-2.323,7.675-4.651a3.5,3.5,0,0,1,2.383-.609,2.549,2.549,0,0,1,1.832,3.92,4.409,4.409,0,0,1-1.167,1.2c-3.249,2.315-6.525,4.589-9.781,6.893a3.318,3.318,0,0,1-3.79.184,4.567,4.567,0,0,1-.751-.509q-2.574-2.16-5.139-4.335C264.288,138.488,264.226,138.448,264.14,138.386Z" transform="translate(-223.217 -111.522)" fill="#f37022"/>
  </g>
</svg>
