<svg xmlns="http://www.w3.org/2000/svg" width="18.257" height="18.001" viewBox="0 0 18.257 18.001">
  <g id="Athletics" transform="translate(-0.003 0.004)">
    <path id="Path_7311" data-name="Path 7311" d="M41.694,59.335c1.249.393,2.423.766,3.6,1.132a1.091,1.091,0,0,1,.9.991,1.048,1.048,0,0,1-.2.717q-1.74,1.795-3.539,3.531a.941.941,0,0,1-1.336-.079.951.951,0,0,1,.015-1.336c.641-.688,1.3-1.358,2-2.085-.285-.1-.522-.191-.765-.266-1-.312-2.006-.612-3-.934a4.032,4.032,0,0,1-.886-.387,1.432,1.432,0,0,1-.541-2.162c.562-.991,1.133-1.978,1.743-3.042-.583-.091-1.107-.186-1.635-.242-.107-.011-.245.106-.342.193-.618.562-1.225,1.131-1.842,1.692a.99.99,0,1,1-1.324-1.443c.849-.787,1.7-1.568,2.553-2.356a1.406,1.406,0,0,1,1.235-.372c1.19.179,2.385.337,3.571.527a4.684,4.684,0,0,1,1.152.328,1.847,1.847,0,0,1,.756,2.978c-.562.734-1.166,1.439-1.75,2.158C41.939,59.009,41.84,59.145,41.694,59.335Z" transform="translate(-32.143 -49.783)"/>
    <path id="Path_7312" data-name="Path 7312" d="M13.3,153.96c-.374.844-.715,1.638-1.078,2.42a1.266,1.266,0,0,1-.352.422c-1.341,1.092-2.685,2.184-4.038,3.258a.953.953,0,0,1-1.365-.148.982.982,0,0,1,.181-1.4c1.014-.857,2.046-1.7,3.051-2.563a1.917,1.917,0,0,0,.5-.691c.39-.936.744-1.888,1.135-2.9A3.17,3.17,0,0,0,13.3,153.96Z" transform="translate(-6.25 -142.285)"/>
    <path id="Path_7313" data-name="Path 7313" d="M176,69.231l1.94,1.362c.677-.626,1.332-1.233,1.988-1.838.553-.51,1.129-.551,1.547-.114a1.018,1.018,0,0,1-.2,1.535q-1.2,1.118-2.411,2.229a1.41,1.41,0,0,1-2.134.129c-.441-.307-.878-.619-1.355-.955A2.513,2.513,0,0,0,176,69.231Z" transform="translate(-163.487 -64.173)"/>
    <path id="Path_7314" data-name="Path 7314" d="M158.288,9a2.076,2.076,0,1,1-1.487.594A2.087,2.087,0,0,1,158.288,9Z" transform="translate(-145.636 -9)"/>
  </g>
</svg>
