<svg id="Layer_1" data-name="Layer 1" xmlns="http://www.w3.org/2000/svg" viewBox="0 0 259.68 256.03"><path d="M142.07,144.92c17.76,5.59,34.46,10.9,51.19,16.1,7.11,2.2,12.33,6.35,12.76,14.09.18,3.4-.7,7.93-2.9,10.2q-24.75,25.53-50.34,50.23c-5.41,5.23-14,4.23-19-1.13s-5.18-13.24.22-19c9.12-9.78,18.51-19.31,28.46-29.65-4.06-1.42-7.43-2.72-10.88-3.79-14.24-4.44-28.53-8.71-42.73-13.29a57.34,57.34,0,0,1-12.6-5.51c-12.39-7.7-14.88-18.09-7.69-30.75,8-14.09,16.11-28.13,24.79-43.27-8.29-1.29-15.74-2.64-23.25-3.44-1.52-.16-3.49,1.51-4.87,2.75-8.79,8-17.42,16.09-26.2,24.06-7.33,6.67-16,6.78-21.51.46C32.15,106.8,33.16,98.57,40.2,92c12.08-11.19,24.24-22.3,36.31-33.51A20,20,0,0,1,94.07,53.2C111,55.75,128,58,144.87,60.7a66.63,66.63,0,0,1,16.38,4.67C179.41,73.5,184.07,92,172,107.73c-8,10.44-16.59,20.47-24.89,30.69C145.56,140.28,144.15,142.22,142.07,144.92Z" transform="translate(-6.25 -9)"/><path d="M106.53,175.12c-5.32,12-10.17,23.3-15.34,34.42a18,18,0,0,1-5,6C67.11,231.07,48,246.61,28.75,261.88a13.55,13.55,0,0,1-19.42-2.11c-4.87-6.13-3.92-14.44,2.57-19.92C26.33,227.66,41,215.73,55.3,203.39a27.27,27.27,0,0,0,7.09-9.83c5.55-13.32,10.58-26.86,16.15-41.2C84.32,164.72,94.45,170.58,106.53,175.12Z" transform="translate(-6.25 -9)"/><path d="M184.24,81l27.6,19.38c9.63-8.9,18.95-17.54,28.28-26.14,7.87-7.26,16.06-7.84,22-1.62s4.9,14.66-2.82,21.83q-17.12,15.9-34.3,31.7c-10.89,10-18.11,10.4-30.35,1.84-6.27-4.37-12.49-8.8-19.27-13.58C183.7,105.21,187,94.73,184.24,81Z" transform="translate(-6.25 -9)"/><path d="M186.18,9a29.69,29.69,0,1,1-30,29.43A29.53,29.53,0,0,1,186.18,9Z" transform="translate(-6.25 -9)"/></svg>