<svg xmlns="http://www.w3.org/2000/svg" width="35.66" height="41" viewBox="0 0 35.66 41">
  <g id="Athletes" transform="translate(-0.017)">
    <path id="Path_6458" data-name="Path 6458" d="M109.584,111.1l2.867,1.04c1.016.371,2.043.734,3.06,1.11a2.294,2.294,0,0,1,1.687,2.089,2.819,2.819,0,0,1-.614,1.925l-6.3,8.4c-.213.285-.418.578-.645.852a2.049,2.049,0,0,1-2.1.838,1.766,1.766,0,0,1-1.323-2.235,3.348,3.348,0,0,1,.443-.936c1.525-2.3,3.074-4.585,4.614-6.877.056-.081.108-.164.182-.276-.324-.093-.622-.179-.922-.263l-6.44-1.8a2.661,2.661,0,0,1-2.124-2.208,3.743,3.743,0,0,1,.421-2.359q1.779-3.5,3.565-7c.062-.127.127-.246.2-.4-.56-.075-1.082-.147-1.6-.216-1.2-.156-2.4-.315-3.6-.462a.889.889,0,0,0-.45.065q-2.719,1.193-5.432,2.4a2.072,2.072,0,0,1-1.3.194,1.462,1.462,0,0,1-.889-2.331,2.261,2.261,0,0,1,.71-.6c2.067-1.109,4.144-2.2,6.225-3.29a2.883,2.883,0,0,1,1.6-.235c2.5.18,4.994.354,7.5.541a22.433,22.433,0,0,1,2.446.254,4.828,4.828,0,0,1,2.683,1.518,3.345,3.345,0,0,1,.361,4.356c-.536.784-1.176,1.5-1.779,2.236-.935,1.143-1.878,2.277-2.818,3.415Z" transform="translate(-90.877 -91.388)" fill="#7054ff"/>
    <path id="Path_6459" data-name="Path 6459" d="M94.343,223.546c-.142.363-.278.709-.413,1.054-.661,1.69-1.329,3.376-1.976,5.072a4,4,0,0,1-1.143,1.621c-1.133.995-2.225,2.033-3.332,3.063L82.8,238.676a2.42,2.42,0,0,1-1.45.7,1.788,1.788,0,0,1-1.829-2.486,3,3,0,0,1,.611-.889c2.326-2.414,4.666-4.807,7-7.213a1.121,1.121,0,0,0,.254-.438q1.086-3.527,2.16-7.06c.022-.07.044-.141.07-.22.024.017.052.024.061.042a3.258,3.258,0,0,0,2.166,1.728c.747.215,1.5.422,2.247.635A2.307,2.307,0,0,1,94.343,223.546Z" transform="translate(-79.36 -198.387)" fill="#7054ff"/>
    <path id="Path_6460" data-name="Path 6460" d="M249.9,50.854a4.167,4.167,0,1,1,4.168-4.157A4.167,4.167,0,0,1,249.9,50.854Z" transform="translate(-224.579 -42.52)" fill="#7054ff"/>
    <path id="Path_6461" data-name="Path 6461" d="M264.14,135.3a5.119,5.119,0,0,0,1.6-4.14l3.275,3.176.254-.149q2.2-1.333,4.4-2.668a2.008,2.008,0,0,1,1.367-.349,1.462,1.462,0,0,1,1.051,2.249,2.529,2.529,0,0,1-.67.686c-1.864,1.328-3.743,2.632-5.61,3.954a1.9,1.9,0,0,1-2.174.105,2.621,2.621,0,0,1-.431-.292q-1.476-1.239-2.947-2.486C264.225,135.36,264.19,135.337,264.14,135.3Z" transform="translate(-240.65 -119.893)" fill="#7054ff"/>
  </g>
</svg>
