<svg xmlns="http://www.w3.org/2000/svg" width="18.726" height="26.417" viewBox="0 0 18.726 26.417">
  <g id="Badminton" transform="translate(0.005)">
    <path id="Path_7315" data-name="Path 7315" d="M15.768,69.908l-.229-.1a1.015,1.015,0,0,1-.493-1.538c.4-.64.828-1.269,1.276-1.876.361-.492.764-.953,1.161-1.419a.292.292,0,0,0,.057-.347c-.286-.728-.561-1.459-.839-2.192-.1-.256-.192-.272-.408-.1Q14.31,63.9,12.318,65.464a6.653,6.653,0,0,1-.713.471.977.977,0,0,1-1.4-.313,1.061,1.061,0,0,1,.22-1.472c1.293-.986,2.585-1.974,3.884-2.952a.358.358,0,0,0,.146-.45q-.7-2.551-1.377-5.106c-.043-.163-.091-.254-.292-.274a11.535,11.535,0,0,1-5-1.749,1.078,1.078,0,0,1-.56-1.351.293.293,0,0,0-.044-.227Q6.37,51.109,5.533,50.2a.37.37,0,0,0-.261-.125,2.774,2.774,0,0,1-1.847-.526A3.992,3.992,0,0,1,1.594,47.2a2.456,2.456,0,0,1,.021-1.448,1.591,1.591,0,0,1,1.853-1A3.149,3.149,0,0,1,5.414,45.97a4.241,4.241,0,0,1,.973,2.482,5.922,5.922,0,0,1-.09.736.694.694,0,0,0,.032.4c.433.652.887,1.29,1.341,1.928a.187.187,0,0,0,.162.065,1.162,1.162,0,0,1,1.072.181c.687.354,1.372.719,2.085,1.008a7.5,7.5,0,0,0,2.624.5.278.278,0,0,0,.1,0c.91-.393,1.966-.363,2.8-.979.417-.311.847-.612,1.276-.922-.5-.821-.982-1.6-1.451-2.376a1.041,1.041,0,0,1,.74-1.642.93.93,0,0,1,1,.388c.22.308.409.637.607.96q.662,1.078,1.32,2.159a1.114,1.114,0,0,1-.2,1.533,10.411,10.411,0,0,1-2.925,2.137c-.153.069-.139.158-.1.288.427,1.577.855,3.153,1.27,4.733a41.083,41.083,0,0,0,1.663,4.742c.042.1.085.208.125.311a1.1,1.1,0,0,1-.232,1.22A23.773,23.773,0,0,0,16.85,69.4a2.569,2.569,0,0,1-.619.508ZM6.011,48.522l.069-.021a12.545,12.545,0,0,0-.4-1.345A3.317,3.317,0,0,0,3.8,45.219a1.363,1.363,0,0,0-1.643.347,1.63,1.63,0,0,0-.195,1.545,3.765,3.765,0,0,0,2.506,2.5,1.485,1.485,0,0,0,.782.06A1,1,0,0,0,6.011,48.522Zm.218,1.584c0-.254-.225-.5-.389-.466a.255.255,0,0,0-.151.182c-.019.192.208.432.379.4.07-.013.129-.094.161-.119Z" transform="translate(-1.5 -43.491)"/>
    <path id="Path_7316" data-name="Path 7316" d="M153.382,99.482a1.95,1.95,0,1,1-.57-1.38A1.951,1.951,0,0,1,153.382,99.482Z" transform="translate(-139.202 -92.629)"/>
    <path id="Path_7317" data-name="Path 7317" d="M90.238,27c-.02.208-.035.366-.052.541a2.9,2.9,0,0,0,.386.144.309.309,0,0,1,.265.443c-.073.235.034.325.236.386a4.466,4.466,0,0,1,.446.192c-.19.09-.335.156-.479.226q-1.065.519-2.129,1.042a.572.572,0,0,1-.719-.148.556.556,0,0,1,.031-.732q.948-1,1.9-2A1.238,1.238,0,0,1,90.238,27Z" transform="translate(-82.059 -27)"/>
  </g>
</svg>
