<svg id="Layer_1" data-name="Layer 1" xmlns="http://www.w3.org/2000/svg" viewBox="0 0 857.4 708.17"><path d="M539.64,926.41q-79,0-158,.06c-5.57,0-9.56.06-9.53-7.65.33-99.68-1.06-199.39.95-299,1.73-85.64,73-154.26,159.8-158.21,84.57-3.84,160.49,58.66,172,142.2,1.95,14.07,2,28.46,2.07,42.71.14,89.57-.09,179.14.17,268.7,0,8.71-1.85,11.6-11.24,11.51-52.07-.52-104.15-.25-156.22-.25Z" transform="translate(-110.6 -218.53)"/><path d="M344.55,858.53H220.15c-.24-2.64-.67-5.18-.67-7.72,0-66.92-.48-133.85,0-200.77.55-73.72,70-127.62,141.36-110.38,1.42.34,2.78.88,5.07,1.62-.93,2.66-1.57,5.11-2.62,7.38a198.26,198.26,0,0,0-18.38,85.56c.35,71.08.12,142.17.09,213.26C345,851,344.74,854.48,344.55,858.53Z" transform="translate(-110.6 -218.53)"/><path d="M859.15,858.71h-124c-.32-4.28-.88-8.26-.88-12.24-.06-70.22-.34-140.44.1-210.65.19-30.94-5.75-60.25-18.78-88.21-.74-1.58-1.23-3.28-2.72-7.31,11.16-1.47,21.49-3.95,31.84-4,61.68-.4,113.61,48.76,114.83,111,1.35,69,.3,138.06.26,207.1A33.91,33.91,0,0,1,859.15,858.71Z" transform="translate(-110.6 -218.53)"/><path d="M433.42,325.54a106.48,106.48,0,0,1,107.13-107c57,.05,105.36,48.4,105.4,105.35.06,59.77-46.41,108.31-103.7,108.31C480.31,432.19,433.54,386.36,433.42,325.54Z" transform="translate(-110.6 -218.53)"/><path d="M192.48,802.68H111.35c-.24-3-.64-5.57-.64-8.14,0-46.7-.25-93.39,0-140.09.29-48.91,48.61-87,95.43-75.63a6.72,6.72,0,0,1,2.53,1c-5.39,20.07-12,39.16-15.31,58.82-2.53,15.07-1,30.84-1,46.3,0,35.1.05,70.19.09,105.29Z" transform="translate(-110.6 -218.53)"/><path d="M967.66,802.69H887.59c-.19-3.39-.54-6.8-.55-10.2,0-39.88-.67-79.76.18-119.61.68-32.09-2.66-63-19.75-92.09,16.65-5.69,32.31-4.82,47.76.43,31.44,10.67,53.58,42.92,52.75,73.23-1.25,45.49-.32,91-.32,136.56Z" transform="translate(-110.6 -218.53)"/><path d="M744.42,507.28c-40.8,0-71.68-31.45-71.58-72.84.1-39.26,32.46-71.24,71.93-71.09a72.16,72.16,0,0,1,71.8,72.35C816.47,475.83,784.73,507.32,744.42,507.28Z" transform="translate(-110.6 -218.53)"/><path d="M334.85,507.4c-39.92,0-72.22-32.07-72.27-71.71s32.66-72.42,71.94-72.41a72.29,72.29,0,0,1,72,72.11C406.53,475.64,374.89,507.42,334.85,507.4Z" transform="translate(-110.6 -218.53)"/><path d="M189.57,548.24a47.05,47.05,0,0,1-47.45-47.45c0-27.69,20.89-48.85,48.14-48.83a48.1,48.1,0,0,1,48.16,48.11C238.3,527.32,217,548.31,189.57,548.24Z" transform="translate(-110.6 -218.53)"/><path d="M937.13,500.66c-.4,27.71-21.35,48-49.11,47.67a48.15,48.15,0,0,1,1.82-96.28C916.73,452.33,937.52,473.69,937.13,500.66Z" transform="translate(-110.6 -218.53)"/></svg>