<svg xmlns="http://www.w3.org/2000/svg" width="57.601" height="62.22" viewBox="0 0 57.601 62.22">
  <g id="couch" transform="translate(-0.006 0)">
    <path id="Path_6424" data-name="Path 6424" d="M71.3,186.156c-.144-2.074-.285-4.117-.433-6.264-.113.183-.183.276-.234.376a3.867,3.867,0,0,1-6.145,1.022q-3.923-3.85-7.77-7.786a5.9,5.9,0,0,1-1.908-5,8.345,8.345,0,0,1,1.278-3.5c2.782-4.381,5.5-8.792,8.434-13.068a10.735,10.735,0,0,1,9.1-4.747c1.329-.024,1.327-.016,1.826,1.187q2.968,7.085,5.946,14.167a1.207,1.207,0,0,1,.009.98c-.675,1.754-1.327,3.518-1.988,5.276-.325.871-.152,1.251.708,1.543q1.868.639,3.737,1.269c.807.274,1.207.086,1.5-.7q1.2-3.191,2.392-6.39c.309-.825.126-1.2-.73-1.5l-1.278-.44c.294-.716.568-1.395.849-2.07q2.707-6.481,5.417-12.962c.089-.212.159-.365.445-.38A11.251,11.251,0,0,1,101.909,151,34.691,34.691,0,0,1,105,155.372q3.007,4.657,5.919,9.38a8.325,8.325,0,0,1,1.448,4.549,5.625,5.625,0,0,1-1.672,3.881c-2.7,2.815-5.424,5.612-8.215,8.343a3.85,3.85,0,0,1-5.966-.853.73.73,0,0,0-.285-.292c-.13,1.91-.259,3.819-.393,5.762Zm32.925-17.475-6.1-8.341-.11.022c-.473,5.334-.944,10.669-1.422,16.065Zm-35.081-8.3-.12-.027-6.085,8.328c2.556,2.556,5.077,5.1,7.618,7.647Q69.848,168.35,69.142,160.378Z" transform="translate(-54.76 -123.936)" fill="#7054ff"/>
    <path id="Path_6425" data-name="Path 6425" d="M177.475,30.108A10.108,10.108,0,1,1,167.405,20,10.108,10.108,0,0,1,177.475,30.108Z" transform="translate(-138.541 -20)" fill="#7054ff"/>
    <path id="Path_6426" data-name="Path 6426" d="M180.39,147.56h11.735c-1.948,4.664-3.876,9.28-5.858,14.03Z" transform="translate(-157.45 -124.273)" fill="#7054ff"/>
  </g>
</svg>
