<svg xmlns="http://www.w3.org/2000/svg" width="23.947" height="20.001" viewBox="0 0 23.947 20.001">
  <g id="Cycling" transform="translate(0.042 -0.095)">
    <path id="Path_7318" data-name="Path 7318" d="M83.431,44.279l.829,1.788a4.8,4.8,0,1,1-.746.342c-.144-.316-.29-.631-.435-.947-.165-.359-.333-.716-.5-1.077a.158.158,0,0,0-.171-.114c-.21.008-.421,0-.631,0A.586.586,0,0,1,81.2,43.9q-.477-1-.957-2c-.138-.288-.275-.33-.55-.172l-2.8,1.611c-.036.02-.072.04-.105.061a.291.291,0,0,0,.006.538c.442.242.887.48,1.329.719.228.123.456.245.683.37a1.138,1.138,0,0,1,.631,1.052V50.5a.877.877,0,0,1-1.754-.011v-3.94a.2.2,0,0,0-.119-.2c-1.3-.7-2.6-1.4-3.891-2.1a1.412,1.412,0,0,1-.819-1.272,1.432,1.432,0,0,1,.769-1.331l5.186-3.033a1.459,1.459,0,0,1,2.1.637q.73,1.508,1.45,3.022a.4.4,0,0,0,.412.26c.827-.008,1.654-.006,2.481,0a.867.867,0,0,1,.832.631.876.876,0,0,1-.349.972.866.866,0,0,1-.514.151H83.616Zm.43,2.9a4.035,4.035,0,1,0,.751-.338c.023.054.047.105.072.16q.773,1.675,1.543,3.353a.631.631,0,0,1,.059.3.388.388,0,0,1-.358.34.4.4,0,0,1-.421-.244c-.248-.531-.492-1.063-.736-1.594C84.47,48.5,84.169,47.847,83.862,47.183Z" transform="translate(-66.811 -35.349)"/>
    <path id="Path_7319" data-name="Path 7319" d="M19.814,108.56a4.825,4.825,0,1,1-3.421,1.432,4.838,4.838,0,0,1,3.421-1.432Zm0,.834a4,4,0,1,0,2.832,1.181,4.014,4.014,0,0,0-2.832-1.181Z" transform="translate(-15.04 -98.139)"/>
    <path id="Path_7320" data-name="Path 7320" d="M158.654,12.593a2.195,2.195,0,1,1-2.182-2.208,2.194,2.194,0,0,1,2.182,2.208Z" transform="translate(-139.66 -10.29)"/>
  </g>
</svg>
