<svg xmlns="http://www.w3.org/2000/svg" width="87.248" height="72.93" viewBox="0 0 87.248 72.93">
  <path id="_2" data-name="2" d="M330.374,760.838l.19.311-.19.4-.254-.28.063-.249Zm22.845-33.848.286-.094.381-.093.127-.218.127.187-.1.343-.159.28v.4l-.254.031-.159-.311-.286-.125.127-.218Zm.444-.28-.191-.093-.666.062-.254-.218-.19.218.159.094h.222l.476.218.032.249-.1.156.286.187.222.5-.222.4-.635.218-1.587.81-.825.467-.571.28-.571.093-.73.28-.444.249-.7.311-.381-.249h-.381l-.952-.125-.222-.156-.349.062-.761.031-.508.093-.793.311-.381.249-.444.467-.254.436-.159.374-.032.311-.127.5-.539.934.064.5-.6.467-.761.81-.222.311-.032.28.1.249-.064.343-.666.342-.063-.062-.349.093-.666.093-.159-.062-.222-.342.1-.187-.19-.529.19-.062v-.187l-.286-.311-.793-.218-.73.031-.857.187-.6.218-.6.28-.476.249-.762.5-.317.28-.444.529-.349.81-.127.529-.286.965-.73.9-.254.4-.127.374-.159.56.064.467-.064.28-.19.4-.19.747.063,1,.159.81.159.436.032.716.19.592.1.249.317.436.286.9.064.156.254.156-.19.9-.1,1.682-.317.81-.127.81-.032.591.063.623.159.81.254.467.349.81.19.374.159.5.1.125.1.4-.19.747-.032.5.127.592.286.623.349.934.127.311-.222-.031-.127-.592-.1-.156-.1-.5-.412-.529-.1-.156-.285-.187-.032-.311-.381-.374-.127.094.063.343-.1.56h-.127l-.317-.436-.286.187v.28l-.19.28.222.28.127.062.254.374.317.062.254.249.159-.062.666.124.254.125.127.311.254.187h.19l.032.592-.444-.187-.159-.623-.159-.187-.317-.187-.254.063-.317-.031h-.127l-.032-.031-.063-.031-.1-.094-.032-.031-.127-.062-.222-.031-.063-.062-.063-.187-.1-.031-.032.031-.064-.125-.285.187-.6-.062.508.467-.317-.031-.127.311-.349.062v.373l-.317.156.032.218.19.124-.317.4-.222.031-.571.311H326.6l-.222.249-.286-.218-.1.249-.254.156.317.218.349.187-.413.343-.159-.218-.159.031-.508-.249.159-.218-.159-.28-.413.094-.127.156-.19-.094-.19.218-.222-.031-.254-.311-.063-.343-.412-.062-.444-.093-.413.031-.476.187.349.218.159-.031-.159.529.063.28.254-.187.1.156-.254.093v.249h-.381l-.19.093-.063.218-.159-.062.032.4-.571.124-.254-.093-.032-.187-.476.062-.159.4L320,766.6l-.254.4.1.156-.064.249-.222.093-.508-.187-.222.125h-.159l-.19-.28-.571-.218-.19-.187-.381.156-.349-.062-.349.529-.032-.56H316.1l-.349-.062-.254.249-.412.093-.381-.125-.1.561-.476-.156-.317.5.286.591-.254.062-.19.436-.032.187-.127.187.063.311-.1.062-.1.4-.254.187-.127.249.063.343-.286.187-.1-.249-.222-.311-.032.685-.19.094-.19-.031.032.5-.984.062-.666-.436-.19-.031-.286-.4-.412.031.032.156-.317-.031-.063-.187.286-.093.1-.187-.1-.374.1-.094.127-.529v-.4l.222-.094.444.094.032-.187.127-.311.127.062.19-.436.349.374.1-.125.317.187.222-.125-.159-.249v-.5l.381.062.032-.187-.1-.374v-.187l.159-.125.413-.125-.063-.187.159-.156-.032-.373.286-.125.032-.218.317-.062-.159-.374.064-.467.19-.311-.127-.125-.413-.031-.063.218-.222-.218-.349-.187-.032-.187-.317.125-.1-.187h-.127l-.286.125.1-.311-.476-.249.19-.374-.1-.685.032-.467.19-.4.159-.374-.19-.156-.413.031-.317-.062-.7.093-.222-.125-.222.062-.222.28-.1-.249.159-.187v-.218l-.349-.093-.032-.249-.127-.031-.444.031-.286.124V760.5l-.159-.156v-.28l.222.093.222-.031.032-.311-.254-.249.286-.311.063-.156-.1-.28.1-.218-.127-.343h-.349l-.032-.187-.317-.187-.032.374-.571-.093-.222.467-.19-.062-.063-.5.1-.156.286-.094-.032-.342.032-.249-.159-.031-.127.249-.412.342-.254-.156-.032-.218-.254.031-.539-.031-.063.156.032.249.127.062.063.312-.286.218-.286.094-.063.249-.444.062-.158.125-.032.592-.159-.28-.286.125v-.28h-.222l-.381.187.032.342-.222-.156-.159.125-.381.125-.064-.249h-.222l.1.4-.1.187-.19-.156h-.254l-.032.28-.286.031-.063-.218.127-.187.064-.342L301.12,759l-.222-.031-.222-.125.159-.28-.539-.062-.222-.156-.349.218-.159-.343-.222.124-.381.062-.127-.592-.159-.031-.349.436-.19-.062.1-.436-.063-.156-.222.187.1.374-.286.062-.159.187.222.094.19.187-.1.187.19.311-.063.187-.476.031-.286-.093-.159.062v.187l-.222-.031-.286-.311h-.159l-.1.4-.19-.125-.127-.467.032-.218-.159-.062.381-.436.127-.467.254-.031-.032-.311-.508-.342.032-.28-.19-.156-.286-.124-.19-.156.063-.28.381-.062-.063-.311-.159-.063-.1-.28-.222-.187-.127.093L295,755.2l.064-.28h.286l.222-.093.032-.249.19.156.666.031-.1.872.127.093v.342l.508.062.222.093.349-.031.127.467.222.094.19-.187.254.062.508-.062.317-.218.063.218.286-.218.1.031.222.4.222.062-.1.342.19.093-.222.311.063.187h.476l.064.187.222-.156-.1-.467.222-.093v-.249l-.1-.093-.381.031-.127-.093.1-.28-.6-.187.127-.312h.127l.222-.218.1-.187.159-.156-.063-.155-.381.124-.064-.187.317-.062.127-.4.825.031.381.125.127-.218-.222-.623.1-.343-.222-.249-.254.124-.127-.062-.032-.374-.159-.093-.349-.094-.159.125-.063.249.159.343.127.031.159.623-.349.124-.064-.28-.222-.124.032-.436-.857-.093v-.592l-.254.062-.127.124h-.539l-.476-.249-.222.062-.064.312-.127.156-.063.28.1.062-.064.4-.159.125h-.222l-.286-.343h-.159l-.317.094-.254-.062-.317.031-.159-.062-.127-.343.19-.124V753.3l-.476-.156-.222-.343.032-.436.159-.031.19-.218.286.156.032-.5h.159l.159-.374-.73-.062-.286.156-.159-.062-.222-.374-.476-.187-.222-.592-.19-.187.1-.841.285-.654-.19-.5.6-.062.063-.5.1-.094.032-.28-.064-.28.159-.031.032-.5v-.28l-.254.031-.127.093-.159-.124-.539-.094-.1-.125.317-.374-.159-.4.032-.125.254-.28.254.156.19.031.254.187.159.311.413-.031.381.062.19.125.381-.187h.476l-.063.28.412.062.032-.249.317-.062.159-.436.032-.28.222-.156.159-.685-.063-.28-.159-.249-.222-.031.19-.343.1-.374-.349-.062-.063-.4-.444.093-.063-.218-.286-.218.063-.28-.159-.187v-.374l-.254-.156-.1-.218-.286-.249.032-.156.254.062h.317l.032-.28-.063-.561.063-.249v-.343l.444-.124.127-.125.381.28.1-.374-.254-.218-.286-.125.1-.187-.1-.155-.317-.031v-.28l.19-.311v-.5l-.381-.031.063-.28.476-.654.285-.156.286-.062.127-.124.412-.094.6-.031.127-.062.381.125.761.031.254.125.539-.093.444.156.444.094.857.125.19-.031.381.311.476.093.349-.124.888.218.381-.094h.254l.1-.187.222-.062.444.218.508.031.286.156.19-.374.222-.031.286.592.381.187.286-.094V736.3h.413l.19-.436-.032-.125.285-.187.254-.062.159-.156.063-.343.127-.311-.1-.342.159-.093.539.062.254-.249.317-.093.381-.218h.508l.476.062.7.187.476-.436.349.062.539.561.317.156.254.062.381-.031.381-.249.286-.467-.032-.716.254-.062.127.156.063.374.317.156.222-.28-.19-.467.032-.311.539-.28.381-.125.286-.156.539.062h.571l.6.218.317-.156.19-.218.063-.529-.032-.4-.159-.311.063-.81.19-.249-.127-.374.063-.28.317-.311.063-.156.6-.156.254-.062.888-.031.254-.28.508-.249h.444l.381-.156.286-.218.539.031.063-.156.317-.156.412-.031.317-.311.254-.093.381.436.571-.094.127.094.19.436.349.218.19-.031.349-.28.19-.374.286-.218.317-.374.032-.28.222-.467-.317-.156-.1-.28h-.19l-.254-.125.19-.5.286-.311.1-.312h.444l.032-.249.19.062.317-.062.064-.156.286-.249.159-.249.127.031.032.28.222-.031.254.187.222-.093.444.623.127.5.063.436.159.187h.254l.159.5.508-.374.032.156.317.156.064.28.349.156.793.156.381-.249-.127-.249-.349-.187.1-.125.032-.374.222-.062-.032-.592h-.159l-.413-.249-.1.156-.317-.125-.159.28-.381-.249-.888-.28.127-.28.19-.218-.254-.467.317-.218.063.249.19.311.286.093.063-.218h.222l.127-.218.032-.28.1-.218.571-.249.127-.156.381.187.381.124.286.28-.19.156.127.187.349-.156.476.031.222.125.825.187.1.125.286-.28-.032-.187.1-.311-.1-.187.127-.125.032-.249.19.062.286-.062v-.249l-.1-.374.286-.031.254.187.317.093.444-.062.19-.218h.222l.222-.093.666-.218h.19l.19-.249-.1-.125v-.436l.19-.249.317.062.539.031.222-.187.349-.592.222.031.1.187.381.156.317-.062.286-.218.571-.747.1-1.028.222-.374-.222-.187.1-.218.254-.218.19-.405.19-.249.032-.342.1-.125.286-.156.159-.218.571-.031.254-.218.063-.156.254-.218h.254l.127-.125.19-.031.159-.125-.159-.28-.254-.28.317-.218.159-.249.349-.156h.159l.539-.218.159-.125.254-.031.7-.436v-.249l.254-.156.381.156.127-.218.222.125.413.062.032.125.349-.062.127.343.222.031.222.156.222.031.032.125.285-.062.032-.28-.127-.249.317-.311.19.249.19-.125.159.031.063-.4-.127-.125.032-.529.254.187.1-.156-.19-.249-.412-.156-.063-.218.286-.218V709.8l.063-.4.317-.031.159-.156.127-.249-.1-.125-.413-.062.159-.218.159-.125.1-.218-.254-.4.19-.156.222-.311.317-.28.1-.249.412-.436.063.249.19.093.254.031.063.4-.127.125.159.156.254.062-.191.311v.218h.222l.476.28-.127.5-.032.436.032.28.222.093.254.218.159-.187-.032-.125.222-.374.349-.062.063-.156.349-.031.159-.187.19-.031.19-.249-.1-.187.127-.218-.127-.342.254-.218.19.062.571.311.159-.062.064.218-.064.156.19.249.286-.062.032.125.476-.031.19-.249.19-.031.317.094.286-.249-.254-.28-.063-.187-.222-.156.381-.343.222-.4.19-.187-.19-.125-.222.094-.222-.156-.063-.187.127-.156-.317-.124.127-.187-.1-.374.444-.156.286-.592.1-.062.508-.685.19.156h.19l.19.156.381-.031.19-.124.286.031.159-.373.254-.094h.222l.381-.093.159-.156.254-.156v-.187l.159-.093-.254-.125-.444-.56.159-.125V701.7l-.381-.062-.159-.093-.063-.28.254.031.063-.187.222-.031.064.156.286-.062.222.031.063.218.317.342.19-.125-.127-.467h.254l.032-.28-.127-.125-.063-.374.19-.062.19.218.127-.094.1.436-.19.156.381.062.032-.249.19-.249h.285l.032-.28.254-.218-.127-.28.286-.249.286.311.127.28v.156l.285.343.159.342.063.311.222.125.222.654.285.187.064-.218-.19-.28h-.1l-.127-.436.539-.28.286.685-.032.156.222.28.1.218-.063.187.063.249.254.125.063.249h.381l.286.125.539.062.254-.031.444.218.19.374.286.062.476-.249.254-.093.222.062.412-.187.317.156.413-.218.159.125.349-.125.127-.218-.1-.592.317.156.254-.374.254-.093.19-.249-.127-.28.254-.311-.063-.125-.1-.062v-.125l-.127-.187.063-.031.032.062.159.125.381.187.032-.124.032-.187.127-.156.1-.031.127-.156.412-.093.127-.156.1-.031.032.031h.063l-.032.28.159.249.127-.218.1-.156.032-.031.127-.062v.031l.063.031.032-.062h.159l.063.031.1-.125-.19-.249-.127.125h-.1l-.1-.187h-.1l-.127-.28.381-.062h.349l.032-.156V699.4l.19.093h.159l.063-.031-.063.311-.032.031.032.124v.031l.222.124.127.094.349.187-1.015,1.339-.6.592-.349.436-.032.28-.222.218-.032.28-.571.467-.413.5-.254.28v.187l-.666.654-.254.342-.032.218-.857.716-.888.872-.444.467-.254.5.032.156-.571.4-1.079.529-.286.156-.539.187-.349.249-1.111.436-1.047.623-.286.249-.825.56-.1.312-.317.374-.444.28-.381.28-.1.311-.286.187-.1.5-.19.187-.063.187-.349.218-.127.4-.254.125-.286.249.032.156-.381.343-.222.124-.032.249-.222.187-.476.218-.127.156-.508.125-.254.156-.825.343-.254.343-.381.156-.317.187-.444.187-.159.125-.317.093-1.111.5-1.079.591-.92.561-.825.592-.412.342-.73.716-.222.187-.539.592-.254.529.063.156-.159.187.032.218-.222.062v.342l.19.342.127-.031.381.311.222-.093.222.093-.032.4-.159.654v.187l-.317.031-.127.218Z" transform="translate(-293.35 -699.15)" fill="#f37022" stroke="#fff" stroke-linecap="round" stroke-linejoin="round" stroke-width="0.5"/>
</svg>
