<svg id="focus-2-line" xmlns="http://www.w3.org/2000/svg" width="67.025" height="67.025" viewBox="0 0 67.025 67.025">
  <path id="Path_7360" data-name="Path 7360" d="M0,0H67.025V67.025H0Z" fill="none"/>
  <path id="Path_7361" data-name="Path 7361" d="M29.927,52.269A22.342,22.342,0,1,0,7.585,29.927,22.342,22.342,0,0,0,29.927,52.269Zm0,5.585A27.927,27.927,0,1,1,57.854,29.927,27.927,27.927,0,0,1,29.927,57.854Zm0-16.756A11.171,11.171,0,1,0,18.756,29.927,11.171,11.171,0,0,0,29.927,41.1Zm0,5.585A16.756,16.756,0,1,1,46.684,29.927,16.756,16.756,0,0,1,29.927,46.684Zm0-11.171a5.585,5.585,0,1,1,5.585-5.585A5.585,5.585,0,0,1,29.927,35.513Z" transform="translate(3.585 3.585)" fill="#f37022"/>
</svg>
