<svg id="Group_41095" data-name="Group 41095" xmlns="http://www.w3.org/2000/svg" width="20.598" height="13.497" viewBox="0 0 20.598 13.497">
  <path id="Path_5880" data-name="Path 5880" d="M878.859,191.45a1.423,1.423,0,0,0,.719.683,7.576,7.576,0,0,0,1.839.648,22.622,22.622,0,0,0,3.053.5,36.423,36.423,0,0,0,4.733.174c.856-.025,1.712-.07,2.564-.142a20.281,20.281,0,0,0,4.03-.693,5.883,5.883,0,0,0,1.314-.532,1.494,1.494,0,0,0,.565-.5.576.576,0,0,1,.088-.129c-.019.186-.032.373-.058.559a27.546,27.546,0,0,1-.889,3.745,6.827,6.827,0,0,0-.24.937.814.814,0,0,1-.487.621,5.2,5.2,0,0,1-1.261.455,18.913,18.913,0,0,1-2.568.431,37.126,37.126,0,0,1-4.1.2c-1.17,0-2.337-.05-3.5-.166a17.709,17.709,0,0,1-3.257-.568,3.578,3.578,0,0,1-1.069-.465.711.711,0,0,1-.3-.465c-.1-.46-.233-.914-.361-1.368a28.409,28.409,0,0,1-.708-2.915c-.056-.331-.089-.666-.133-1Zm11,6.776c0-.308,0-.6,0-.894a1.505,1.505,0,0,0-1.34-1.424,1.569,1.569,0,0,0-1.725,1.062,5.763,5.763,0,0,0-.065,1.256C887.778,198.275,888.812,198.274,889.861,198.226Zm3.657-4.974-.549,4.721c.116-.017.213-.037.311-.044.071-.005.086-.039.094-.095q.124-.91.252-1.82.192-1.383.384-2.767a.419.419,0,0,0,0-.074Zm-10.924-.077a.71.71,0,0,0,0,.09c.057.406.116.813.173,1.219q.232,1.677.464,3.355c0,.028.022.074.041.078.116.023.234.035.359.052-.047-.409-.091-.8-.136-1.189q-.109-.944-.22-1.887c-.062-.527-.122-1.055-.186-1.581a.1.1,0,0,0-.064-.067C882.883,193.217,882.741,193.2,882.593,193.175Zm5.491,2.575h.432v-2.134h-.432Z" transform="translate(-878.831 -185.694)" fill="#6060f1"/>
  <path id="Path_5881" data-name="Path 5881" d="M890.205,158.619c.911.043,1.885.07,2.857.138a21.661,21.661,0,0,1,4.166.654,6.264,6.264,0,0,1,1.383.514,3,3,0,0,1,.582.4.611.611,0,0,1,0,.977,2.776,2.776,0,0,1-.9.548,11.692,11.692,0,0,1-2.411.662,28.847,28.847,0,0,1-3.577.4,38.352,38.352,0,0,1-4.122.013,26.971,26.971,0,0,1-4.451-.548,8.334,8.334,0,0,1-2.038-.663,2.98,2.98,0,0,1-.622-.424.606.606,0,0,1-.007-.969,2.931,2.931,0,0,1,1.013-.6,11.8,11.8,0,0,1,2.261-.613,25.307,25.307,0,0,1,3.258-.386C888.443,158.684,889.292,158.657,890.205,158.619Zm-.07.317,0,.026a36.379,36.379,0,0,0-5.312.362,12.242,12.242,0,0,0-2.168.491,6.162,6.162,0,0,0-.721.314,1.194,1.194,0,0,0-.3.225.405.405,0,0,0,0,.641,1.893,1.893,0,0,0,.634.389,10.378,10.378,0,0,0,2.3.6,31.46,31.46,0,0,0,4.155.379,40.6,40.6,0,0,0,5.066-.14,22.979,22.979,0,0,0,2.681-.386,6.911,6.911,0,0,0,1.7-.535,1.949,1.949,0,0,0,.479-.336.379.379,0,0,0-.019-.6,1.683,1.683,0,0,0-.476-.321,9.843,9.843,0,0,0-1.195-.41,20.388,20.388,0,0,0-3.792-.552C892.159,159.009,891.146,158.981,890.135,158.936Z" transform="translate(-880.663 -155.36)" fill="#6060f1"/>
  <path id="Path_5882" data-name="Path 5882" d="M905.834,263.844a.475.475,0,0,1,.107.789,1.963,1.963,0,0,1-.657.414,9.252,9.252,0,0,1-1.947.552,26.455,26.455,0,0,1-3.153.387,40.089,40.089,0,0,1-4.532.053,28,28,0,0,1-4.077-.44,9.548,9.548,0,0,1-1.906-.533,2.1,2.1,0,0,1-.684-.415.476.476,0,0,1,.082-.8,2.02,2.02,0,0,0,1.2.773,11.424,11.424,0,0,0,2.057.468,34.627,34.627,0,0,0,5.369.352,35.748,35.748,0,0,0,3.7-.2,17.374,17.374,0,0,0,3-.538,4.08,4.08,0,0,0,1.027-.429A1.028,1.028,0,0,0,905.834,263.844Z" transform="translate(-887.986 -252.583)" fill="#6060f1"/>
  <path id="Path_5883" data-name="Path 5883" d="M992.029,116.87v2.03h-.23v-3.122c.033,0,.062-.007.092-.007.461,0,.921,0,1.382,0a.185.185,0,0,1,.113.032c.187.166.368.337.574.527-.2.177-.388.35-.583.517a.2.2,0,0,1-.118.021c-.365,0-.731,0-1.1,0Z" transform="translate(-982.558 -115.771)" fill="#6060f1"/>
  <path id="Path_5884" data-name="Path 5884" d="M1048.584,124.738V121.8h.127c.43,0,.86,0,1.29,0a.318.318,0,0,1,.247.1c.158.152.327.294.5.453-.207.188-.393.36-.583.527a.2.2,0,0,1-.115.026c-.407,0-.814,0-1.238,0v1.856Z" transform="translate(-1034.697 -121.343)" fill="#6060f1"/>
  <path id="Path_5885" data-name="Path 5885" d="M937.352,121.828h.125c.442,0,.884,0,1.325,0a.285.285,0,0,1,.165.065c.179.152.351.312.538.48-.2.187-.39.359-.58.527a.2.2,0,0,1-.115.027c-.366,0-.731,0-1.1,0h-.138v1.682c0,.151,0,.151-.156.172l-.067.012Z" transform="translate(-932.565 -121.367)" fill="#6060f1"/>
  <path id="Path_5886" data-name="Path 5886" d="M882.1,145.444v-2.851c.04,0,.08-.005.12-.005.445,0,.891,0,1.336,0a.289.289,0,0,1,.167.064c.18.152.353.311.553.488-.208.184-.394.351-.585.512a.211.211,0,0,1-.124.032c-.369,0-.739,0-1.108,0h-.135v.128c0,.414,0,.828,0,1.242a.278.278,0,0,1-.127.281A.622.622,0,0,0,882.1,145.444Z" transform="translate(-881.83 -140.547)" fill="#6060f1"/>
  <path id="Path_5887" data-name="Path 5887" d="M1104.321,143.692v1.722c-.078-.063-.143-.111-.2-.165a.124.124,0,0,1-.032-.084q0-1.263,0-2.527a.318.318,0,0,1,.008-.043c.034,0,.071,0,.107,0,.453,0,.906,0,1.359,0a.2.2,0,0,1,.122.036c.188.165.371.335.573.519-.2.18-.387.351-.579.516a.2.2,0,0,1-.115.027c-.369,0-.738,0-1.108,0Z" transform="translate(-1085.662 -140.55)" fill="#6060f1"/>
  <path id="Path_5888" data-name="Path 5888" d="M984.445,259.424H982.49a6.5,6.5,0,0,1,.061-.929.976.976,0,0,1,1.89.125C984.464,258.88,984.445,259.143,984.445,259.424Z" transform="translate(-974.01 -247.018)" fill="#6060f1"/>
  <path id="Path_5889" data-name="Path 5889" d="M896.543,176.278a3.546,3.546,0,0,1,.886-.4,13.025,13.025,0,0,1,2.139-.466,36.166,36.166,0,0,1,5.989-.315,30.112,30.112,0,0,1,4.541.4,8.979,8.979,0,0,1,2.106.573c.123.054.238.123.389.2-.184.09-.337.175-.5.241a9.329,9.329,0,0,1-1.913.51,27.921,27.921,0,0,1-3.33.367c-1.313.075-2.626.083-3.939.032a28.925,28.925,0,0,1-3.834-.376,9.826,9.826,0,0,1-2.037-.53C896.879,176.45,896.725,176.365,896.543,176.278Zm2.754.6a36.5,36.5,0,0,0,10.535,0,16.615,16.615,0,0,0-4.213-.566A21.86,21.86,0,0,0,899.3,176.873Z" transform="translate(-895.094 -170.573)" fill="#6060f1"/>
</svg>
