<svg id="playfield_development" data-name="playfield development" xmlns="http://www.w3.org/2000/svg" width="23.121" height="13.854" viewBox="0 0 23.121 13.854">
  <path id="Path_6658" data-name="Path 6658" d="M85.33,247.048a1.309,1.309,0,0,1,.683-.868,1.88,1.88,0,0,1,.708-.173C89.844,246,92.966,246,96.089,246c.029,0,.059,0,.105.007v4.039a2.914,2.914,0,0,0,.008,5.763v4.045H87.037c-1.019,0-1.324-.189-1.707-1.049v-2.393h3.044c.55,0,.8-.233.805-.737q0-2.747,0-5.493c0-.5-.256-.737-.805-.737H85.33Z" transform="translate(-85.33 -245.999)" fill="#6060f1"/>
  <path id="Path_6659" data-name="Path 6659" d="M85.33,445h2.477v4.45H85.33Z" transform="translate(-85.33 -440.298)" fill="#6060f1"/>
  <path id="Path_6660" data-name="Path 6660" d="M578.046,256.412c0,.771.022,1.512-.006,2.252a1.284,1.284,0,0,1-1.282,1.186c-.067,0-.135,0-.2,0h-9.373V255.8a3.243,3.243,0,0,0,2.033-1.38,2.683,2.683,0,0,0,.437-1.706,3.057,3.057,0,0,0-2.472-2.663V246h9.357a1.333,1.333,0,0,1,1.514,1.4v2.038H575.02c-.567,0-.818.228-.818.747q0,2.739,0,5.478c0,.509.254.742.8.743h3.044Z" transform="translate(-554.933 -246)" fill="#6060f1"/>
  <path id="Path_6661" data-name="Path 6661" d="M899.84,445.55v4.424h-2.47V445.55Z" transform="translate(-876.731 -440.835)" fill="#6060f1"/>
  <path id="Path_6662" data-name="Path 6662" d="M469.962,477.613a1.6,1.6,0,0,1,0-3.053Z" transform="translate(-459.092 -469.159)" fill="#6060f1"/>
  <path id="Path_6663" data-name="Path 6663" d="M567.19,474.56a1.6,1.6,0,0,1,0,3.053Z" transform="translate(-554.943 -469.159)" fill="#6060f1"/>
</svg>
