<svg id="talent_Search" data-name="talent Search" xmlns="http://www.w3.org/2000/svg" width="16.871" height="15.19" viewBox="0 0 16.871 15.19">
  <path id="Path_6664" data-name="Path 6664" d="M11.518,11.7a7.5,7.5,0,0,1-9.847-.9,6.219,6.219,0,0,1,.168-8.638,7.433,7.433,0,0,1,9.377-.907,6.283,6.283,0,0,1,1.13,9.685l4.534,3.428-.719.823ZM7.081,1.065A5.725,5.725,0,0,0,1.169,6.6,5.728,5.728,0,0,0,7.1,12.071a5.722,5.722,0,0,0,5.886-5.52A5.732,5.732,0,0,0,7.081,1.065Z" transform="translate(-0.009 -0.002)" fill="#6060f1"/>
  <path id="Path_6665" data-name="Path 6665" d="M383.86,157.883a.8.8,0,0,0,.82.774h.008a.845.845,0,0,0,.573-.221.73.73,0,0,0,.153-.925.852.852,0,0,0-.921-.378.785.785,0,0,0-.633.728Z" transform="translate(-375.497 -153.929)" fill="#6060f1"/>
  <path id="Path_6666" data-name="Path 6666" d="M216.231,201.5a.527.527,0,0,1,.242.053c.174.091.335.192.505.3l.2.125.294.179-.256.221c-.131.114-.26.229-.384.34-.282.254-.549.492-.843.713-.266.2-.4.4-.379.546s.22.3.535.41.646.266.954.409c.14.065.285.132.43.2l.287.127-.175.246-.31.433c-.237.33-.46.641-.679.958a.331.331,0,0,0,.081.494.393.393,0,0,0,.523-.114c.523-.715.98-1.354,1.4-1.953a.348.348,0,0,0,.067-.29.409.409,0,0,0-.238-.236c-.253-.118-.515-.233-.769-.344-.137-.061-.28-.122-.419-.184-.067-.03-.131-.062-.2-.1l-.105-.052-.344-.166.283-.246.42-.364c.311-.27.605-.524.9-.783a.345.345,0,0,0-.048-.634c-.253-.158-.511-.317-.763-.471s-.537-.329-.8-.5a.528.528,0,0,0-.482-.055c-.3.1-.609.188-.906.279l-.714.218a.549.549,0,0,0-.335.229.294.294,0,0,0,0,.252c.107.28.456.2.56.169l.465-.142c.251-.077.51-.157.768-.231A.92.92,0,0,1,216.231,201.5Z" transform="translate(-209.5 -196.663)" fill="#6060f1"/>
  <path id="Path_6667" data-name="Path 6667" d="M139.7,354.78c-.1.143-.188.275-.27.411a1.589,1.589,0,0,1-.7.612c-.5.245-1,.506-1.483.757l-.442.23a.513.513,0,0,0-.275.276.286.286,0,0,0,.04.235c.148.241.408.175.6.077s.4-.213.6-.319a14.588,14.588,0,0,1,1.382-.684,2.227,2.227,0,0,0,1-.983l.143-.215A1.629,1.629,0,0,1,139.7,354.78Z" transform="translate(-133.546 -347.594)" fill="#6060f1"/>
  <path id="Path_6668" data-name="Path 6668" d="M390.86,214.576l.009.006c.191.138.37.269.558.386a.337.337,0,0,0,.43-.039c.513-.5,1-.984,1.452-1.453a.308.308,0,0,0,0-.405.353.353,0,0,0-.419-.106,1.014,1.014,0,0,0-.243.186c-.218.209-.436.427-.647.638l-.253.252-.164.162-.293-.192a1.407,1.407,0,0,1-.428.565Z" transform="translate(-382.345 -208.622)" fill="#6060f1"/>
</svg>
