<svg id="Promotion_of_rular" data-name="Promotion of rular" xmlns="http://www.w3.org/2000/svg" width="13.861" height="21.573" viewBox="0 0 13.861 21.573">
  <path id="Path_6678" data-name="Path 6678" d="M281.291,239.146l-3.622.9.248.264c.777.817,1.552,1.636,2.333,2.449a1.169,1.169,0,0,1,.327,1.031q-.278,1.953-.557,3.907c-.021.15-.042.3-.067.451a1.169,1.169,0,0,1-1.322.949,1.127,1.127,0,0,1-1.023-1.265q.264-1.888.531-3.776a.266.266,0,0,0-.079-.247q-1.724-1.805-3.443-3.615a.99.99,0,0,1-.258-.9c.2-1.22.378-2.442.576-3.661.147-.908.311-1.813.467-2.72.005-.03,0-.062.007-.106l-.746.093c-.238.029-.476.063-.715.086a.15.15,0,0,0-.157.133q-.387,1.613-.779,3.224c-.034.14-.066.281-.1.42a.887.887,0,0,1-1.033.61.823.823,0,0,1-.7-.946c.155-.7.332-1.4.5-2.1q.267-1.11.537-2.22a.864.864,0,0,1,.8-.691q2.024-.249,4.049-.494a1.356,1.356,0,0,1,.659.117c.409.155.828.288,1.243.429.322.11.641.232.968.327a.826.826,0,0,1,.669,1.024,4.939,4.939,0,0,1-.2.826c-.384,1.205-.777,2.408-1.166,3.612-.008.026-.014.053-.026.1.112-.026.21-.048.308-.072l2.325-.583a1.254,1.254,0,0,1,1.436.479,1.729,1.729,0,0,1,.2.664c.238,1.294.472,2.589.71,3.883a1.138,1.138,0,0,1-.972,1.336,1.2,1.2,0,0,1-1.381-.973c-.168-.957-.344-1.913-.517-2.87C281.309,239.2,281.3,239.179,281.291,239.146Z" transform="translate(-271.159 -227.534)" fill="#6060f1"/>
  <path id="Path_6679" data-name="Path 6679" d="M519.536,92a2.088,2.088,0,1,1-2.076-1.952A2.014,2.014,0,0,1,519.536,92Z" transform="translate(-509.073 -90.05)" fill="#6060f1"/>
  <path id="Path_6680" data-name="Path 6680" d="M680.637,316.271a1.574,1.574,0,1,1,1.68-1.561A1.619,1.619,0,0,1,680.637,316.271Z" transform="translate(-668.456 -307.783)" fill="#6060f1"/>
</svg>
