<svg id="physical_fitness" data-name="physical fitness" xmlns="http://www.w3.org/2000/svg" width="12.114" height="18.635" viewBox="0 0 12.114 18.635">
  <path id="Path_6676" data-name="Path 6676" d="M325.766,91.362a6.184,6.184,0,0,0-.621.4q-1.117.929-2.211,1.882a.552.552,0,0,0-.178.316c-.124.959-.233,1.92-.348,2.88a1.361,1.361,0,0,1-.067.314.831.831,0,0,1-.9.5.764.764,0,0,1-.7-.763c.023-.428.085-.855.136-1.282.088-.747.184-1.493.269-2.24a.86.86,0,0,1,.322-.592c.233-.193.461-.39.715-.607-.22-.066-.417-.123-.612-.184a5.073,5.073,0,0,1-1.411-.665,2.184,2.184,0,0,1-.887-2.756,2.9,2.9,0,0,1,1.389-1.6c.522-.267,1.062-.5,1.595-.754.218-.1.439-.2.653-.312a.223.223,0,0,0,.115-.152,7,7,0,0,0-.72-3.556,4,4,0,0,0-1.689-1.7.744.744,0,0,1-.339-1.088.874.874,0,0,1,1.188-.244,5.763,5.763,0,0,1,2.825,3.477,9.373,9.373,0,0,1,.415,3.183.753.753,0,0,0,.091.376q2.875,5.075,5.76,10.146a1.5,1.5,0,0,1,.18.4.754.754,0,0,1-.532.876.846.846,0,0,1-1.012-.361c-.476-.808-.941-1.622-1.41-2.434l-1.89-3.269C325.855,91.5,325.82,91.45,325.766,91.362Zm-3.434-.776-1.116-2.033c-.118.148-.225.263-.309.391a.723.723,0,0,0,.188,1.076A3.589,3.589,0,0,0,322.332,90.586Z" transform="translate(-318.635 -79.035)" fill="#6060f1"/>
  <path id="Path_6677" data-name="Path 6677" d="M301.389,243.052a1.556,1.556,0,1,1,1.672-1.549,1.489,1.489,0,0,1-.488,1.1A1.726,1.726,0,0,1,301.389,243.052Z" transform="translate(-299.72 -236.462)" fill="#6060f1"/>
</svg>
