<svg xmlns="http://www.w3.org/2000/svg" width="26.236" height="20.931" viewBox="0 0 26.236 20.931">
  <g id="Group_39803" data-name="Group 39803" transform="translate(0)">
    <path id="Path_525" data-name="Path 525" d="M-482.687-147.072c-.127,0-.256,0-.383-.009a7.436,7.436,0,0,1-6.712-5.584c-.065-.264-.109-.532-.155-.816-.02-.122-.04-.245-.062-.367v-1.194c.03-.149.057-.3.083-.443a9.7,9.7,0,0,1,.21-.976,7.37,7.37,0,0,1,6.281-5.3,12.734,12.734,0,0,1,1.334-.054c.187,0,.38,0,.572-.007v.021c0,.282,0,.549,0,.822a1.133,1.133,0,0,0,1.043,1.166c.032,0,.063,0,.094,0a1.124,1.124,0,0,0,1.137-1.134c.009-.276.007-.548,0-.836,0-.015,0-.029,0-.044h15.476v5.409l-.267.049c-.394.072-.8.147-1.2.229q-3.883.793-7.766,1.591l-1.7.348c-.067.014-.13.031-.172.042l-.03.008-.2.051-.051.2c-.055.218-.1.436-.152.647a11.809,11.809,0,0,1-.344,1.291,7.19,7.19,0,0,1-2.709,3.553A7.562,7.562,0,0,1-482.687-147.072Zm-.11-13.9c-.11.015-.22.028-.328.041-.234.028-.476.057-.715.1a6.432,6.432,0,0,0-4.2,2.815,6.413,6.413,0,0,0-.925,4.958,6.477,6.477,0,0,0,6.357,5.1,6.74,6.74,0,0,0,1.191-.107,6.417,6.417,0,0,0,5.3-5.995c.055-1.494.046-3.012.037-4.48,0-.635-.008-1.291-.006-1.935a.625.625,0,0,0-.03-.182c0-.008,0-.016-.007-.024l-.063-.272h-2.08l-.082.236c-.43,1.238-1.039,1.766-2.037,1.766h-.029c-.97-.01-1.607-.578-2.006-1.789l-.091-.277Zm7.612,5.979,7.059-1.45v-4.5h-7.059Zm7.964-1.635,2.581-.533v-3.785h-2.581Z" transform="translate(490 168.003)" fill="#fff"/>
    <path id="Path_526" data-name="Path 526" d="M-418.627-236.841l.7-.518,1.363,1.852-.706.517Z" transform="translate(423.634 238.236)" fill="#fff"/>
    <path id="Path_527" data-name="Path 527" d="M-321.647-235.363l1.362-1.85.706.516-1.363,1.852Z" transform="translate(333.457 238.1)" fill="#fff"/>
    <rect id="Rectangle_1269" data-name="Rectangle 1269" width="0.844" height="2.264" transform="translate(9.012 0)" fill="#fff"/>
    <path id="Path_528" data-name="Path 528" d="M-422.542-91.611a2.864,2.864,0,0,1-2.864-2.857,2.864,2.864,0,0,1,2.867-2.851,2.836,2.836,0,0,1,2.02.836,2.835,2.835,0,0,1,.835,2.019,2.859,2.859,0,0,1-2.856,2.854Zm0-4.834a1.974,1.974,0,0,0-1.409.59,1.957,1.957,0,0,0-.575,1.4,1.991,1.991,0,0,0,1.977,1.969h.009a1.984,1.984,0,0,0,1.981-1.978,1.967,1.967,0,0,0-.576-1.4,1.972,1.972,0,0,0-1.406-.578Z" transform="translate(429.937 108.02)" fill="#fff"/>
  </g>
</svg>
