<svg xmlns="http://www.w3.org/2000/svg" width="26.78" height="26.78" viewBox="0 0 26.78 26.78">
  <path id="Path_5734" data-name="Path 5734" d="M26,26l-.052-8.63h.837V15.012H25.211V12.147l-4.5-6.772H14.67l-.888-1.348V2.354h3.138V0H13V4.027L12.11,5.375H6.066l-4.5,6.772v2.864H0v2.354H.837L.785,26h.837v-8.63H8.683V26H0v.785H26.78V26H18.1v-8.63h7.061L25.211,26ZM13.782.785h2.354v.785H13.782ZM18.1,15.012V12.658h6.329v2.354Zm2.2-8.852,3.794,5.714H18.882V10.3h-.966L15.187,6.16ZM16.977,10.3H9.8L13.39,4.858ZM6.487,6.16h5.106L8.864,10.3H7.9v1.569H2.693Zm-4.133,6.5H8.683v2.354H2.354ZM.785,16.581V15.8h7.9v.785ZM14.175,26H12.606V19.719a.785.785,0,1,1,1.569,0Zm.785,0V19.719a1.569,1.569,0,1,0-3.138,0V26H9.467V12.658H13v-.785H8.683v-.785H18.1v.785H13v.785h4.315V26ZM18.1,15.8H26v.785H18.1Z" fill="#fff"/>
</svg>
