<svg xmlns="http://www.w3.org/2000/svg" width="30.072" height="23.841" viewBox="0 0 30.072 23.841">
  <g id="Group_1462" data-name="Group 1462" transform="translate(0 0)">
    <path id="Path_529" data-name="Path 529" d="M-649.71,252.781a.511.511,0,0,1-.494-.574c0-.191,0-.381,0-.572,0-.369,0-.749-.01-1.128a1.081,1.081,0,0,0-.286-.679c-.479-.493-.972-.986-1.45-1.462l-.658-.658c-.345-.346-.346-.58,0-.924l.721-.722c.463-.463.942-.941,1.408-1.418a.973.973,0,0,0,.269-.64c.008-2.067.007-4.168.006-6.2v-.917c0-.055,0-.105-.009-.158,0-.024,0-.05-.006-.081l-.036-.522-.606.206-.217.074-.483.174c-.368.134-.75.272-1.125.4a.722.722,0,0,0-.533.751c0,.743,0,1.5,0,2.232,0,1.028,0,2.091.01,3.138a1.038,1.038,0,0,1-.359.844,8.084,8.084,0,0,1-3.315,1.768,17.387,17.387,0,0,1-5.014.662c-.491,0-.993-.014-1.536-.043a14.513,14.513,0,0,1-4.551-.907,7.311,7.311,0,0,1-2.4-1.455,1.117,1.117,0,0,1-.384-.9c.012-1.052.012-2.12.011-3.152,0-.727,0-1.479,0-2.217a.752.752,0,0,0-.548-.789c-1.245-.453-2.509-.922-3.731-1.376l-1.123-.417c-.4-.15-.46-.345-.46-.516s.05-.371.45-.516l4.642-1.681q4.711-1.706,9.422-3.415a.729.729,0,0,1,.253-.045,1.2,1.2,0,0,1,.408.086q4.723,1.714,9.448,3.423l3.227,1.167c.427.154.869.314,1.3.475.285.107.429.277.427.507,0,.086,0,.347-.436.507-.373.138-.808.3-1.235.442a.661.661,0,0,0-.492.681q0,1.767,0,3.534c0,1.4,0,2.851.007,4.276a.93.93,0,0,0,.269.611c.3.309.612.618.912.918.329.329.67.669,1,1.007a5.143,5.143,0,0,1,.373.449l.095.122v.2l-.122.152c-.152.19-.3.369-.453.531-.569.588-1.154,1.173-1.739,1.738a1.073,1.073,0,0,0-.345.854c.012.464.009.94,0,1.4v.184a.518.518,0,0,1-.5.581Zm-1.856-5.5,1.837,1.836,1.888-1.882-1.842-1.847Zm-18.192-9.208q0,.589,0,1.17c0,1.188,0,2.309-.008,3.453a.913.913,0,0,0,.478.882c.164.088.332.186.495.28a7.362,7.362,0,0,0,1.381.677,17.076,17.076,0,0,0,5.336.844,20.241,20.241,0,0,0,4.09-.435,8.642,8.642,0,0,0,3.221-1.317,1.15,1.15,0,0,0,.554-1.05c-.018-.993-.015-2.005-.012-2.984q0-.554,0-1.109v-.938l-.676.233-.205.071-1.578.568c-1.617.582-3.29,1.183-4.932,1.783a1.19,1.19,0,0,1-.411.08,1.163,1.163,0,0,1-.414-.082c-1.654-.623-3.339-1.246-4.969-1.847l-1.493-.552c-.073-.027-.145-.05-.221-.074l-.11-.035-.528-.174Zm7.942-8.041a1.274,1.274,0,0,0-.42.072c-2.4.861-4.839,1.745-7.2,2.6l-1.183.429-2.077.754-1.932.7,1.137.438.168.064,2.191.812c2.824,1.047,5.744,2.129,8.614,3.2a1.414,1.414,0,0,0,.5.1,1.431,1.431,0,0,0,.494-.092c2.913-1.057,5.876-2.126,8.742-3.161l2.211-.8.3-.108,1.166-.426-.972-.392-.115-.047c-.058-.024-.1-.04-.136-.054l-1.421-.515c-3.189-1.155-6.486-2.35-9.732-3.516A.993.993,0,0,0-661.816,230.037Z" transform="translate(676.618 -228.94)" fill="#fff"/>
  </g>
</svg>
