<svg xmlns="http://www.w3.org/2000/svg" width="32.68" height="24.086" viewBox="0 0 32.68 24.086">
  <g id="Group_1463" data-name="Group 1463" transform="translate(0 0)">
    <path id="Path_530" data-name="Path 530" d="M-845.77,720.086c-1.67,0-3.3,0-4.832-.011a1.21,1.21,0,0,1-.54-.173c-6.827-3.769-13.537-7.481-19.943-11.034a2.931,2.931,0,0,1-.452-.336c-.049-.041-.1-.083-.149-.124v-.18l.463-.871,1.144-2.152c.2-.379.284-.42.412-.42a1.509,1.509,0,0,1,.4.084l.139.042.08-.121.07-.105c.052-.079.106-.159.157-.241l5.021-8.027c.218-.349.323-.417.43-.417a1.159,1.159,0,0,1,.47.175l.762.408q1.252.67,2.5,1.342a2.048,2.048,0,0,1,1.1,2.635c-.06.2-.118.4-.181.616l-.2.678.35-.115.133-.043c.078-.025.146-.046.214-.072l1.643-.632q1.268-.488,2.536-.974a1.878,1.878,0,0,1,.669-.133,1.18,1.18,0,0,1,.862.34,1.5,1.5,0,0,1,.383,1.1,2.144,2.144,0,0,0,.332,1.186c1.483,2.442,2.976,4.936,4.419,7.347l.012.02a.692.692,0,0,0,.6.386l.692.045c1.334.087,2.713.177,4.063.31a3.318,3.318,0,0,1,2.947,2.706.921.921,0,0,0,.049.153l.008.02v3.747a3.788,3.788,0,0,1-.678,1.563,3.222,3.222,0,0,1-2.619,1.27C-843.5,720.084-844.664,720.086-845.77,720.086Zm.737-.755.84,0,.841,0c.411,0,.749,0,1.066-.007a2.621,2.621,0,0,0,1.869-.8,2.263,2.263,0,0,0,.619-1.67l-.009-.184H-844.4c-1.629,0-3.559,0-5.521-.01a1.539,1.539,0,0,1-.722-.2c-5.045-2.886-10.17-5.83-15.126-8.676l-3.163-1.816c-.081-.046-.163-.09-.249-.137l-.124-.067-.172-.093-1.317,2.477.155.1.088.056c.06.038.117.074.178.107l.251.139c6.3,3.484,12.808,7.087,19.215,10.625a1.245,1.245,0,0,0,.577.149c1.078.005,2.128.006,3.013.006Zm-8.032-7.954a.351.351,0,0,1,.242.1.366.366,0,0,1,0,.545,2.6,2.6,0,0,1-.181.192l-.075.075-.743.757-.449.457.2.128.107.069c.064.041.119.077.177.11l.714.412c.874.5,1.777,1.025,2.672,1.527a1.351,1.351,0,0,0,.638.164c2.083.005,4.127.006,6.024.006h3.954v-.194c0-.216,0-.428,0-.638.006-.47.011-.915-.011-1.367a2.457,2.457,0,0,0-2.09-2.306c-.658-.077-1.329-.123-1.978-.168s-1.341-.093-2.006-.172a6.277,6.277,0,0,0-.737-.045,5.685,5.685,0,0,0-2.22.448.793.793,0,0,1-.284.074c-.1,0-.194-.047-.377-.285q-2.746-3.561-5.489-7.123a.627.627,0,0,1-.184-.416c.014-.106.11-.222.3-.367q.487-.368.977-.733l.726-.543a1.127,1.127,0,0,0,.183-1.2.515.515,0,0,0-.441-.25,1.078,1.078,0,0,0-.387.1l-.038.015-1.328.51c-1.3.5-2.645,1.014-3.962,1.534a.982.982,0,0,1-.361.078.883.883,0,0,1-.467-.149c-1.119-.681-2.263-1.364-3.369-2.024l-1.138-.68c-.067-.04-.136-.079-.207-.12l-.1-.058-.161-.092-.924,1.452.727.54c.426.316.843.625,1.258.935a4.033,4.033,0,0,1,1.753,3.111,15.7,15.7,0,0,1-.082,2.317,1.114,1.114,0,0,0,.739,1.317.869.869,0,0,0,.3.07h0a.548.548,0,0,0,.364-.15c.705-.6,1.43-1.2,2.13-1.78l.644-.535a1.438,1.438,0,0,1,.179-.135.421.421,0,0,1,.212-.061.353.353,0,0,1,.273.127.362.362,0,0,1-.014.482,2.291,2.291,0,0,1-.26.239l-.027.022c-.647.54-1.3,1.078-1.956,1.627l-.813.676.242.139.474.27c.392.223.762.433,1.129.66a.6.6,0,0,0,.32.1.6.6,0,0,0,.379-.161c.63-.516,1.38-1.124,2.164-1.723a.753.753,0,0,1,.39-.165l.03,0a.577.577,0,0,1,.3.292c.025.053.083.178-.2.4-.492.394-.985.787-1.488,1.188l-.828.661,2.531,1.457.333-.331c.172-.171.338-.334.5-.5.091-.091.181-.184.271-.277.168-.174.342-.353.52-.518A.413.413,0,0,1-853.065,711.377Zm-1.178-7.537.229.3.2.265,1.61,2.089,2.818,3.657c.243.316.376.488.627.488h0a1.607,1.607,0,0,0,.6-.2l.2-.09-4.652-7.736Zm-14.251,1.513,5.538,3.184.016-.315c.011-.215.023-.425.034-.63.024-.453.047-.882.067-1.314a3.076,3.076,0,0,0-.9-2.47c-.5-.472-1.062-.9-1.6-1.318-.238-.183-.484-.372-.724-.565l-.169-.135Zm3.971-6.264,4.785,2.861.2-.68c.094-.315.183-.611.271-.907a1.332,1.332,0,0,0-.755-1.792c-.872-.469-1.76-.943-2.618-1.4l-.138-.074c-.06-.032-.12-.059-.183-.088l-.087-.04-.158-.074Z" transform="translate(871.687 -696)" fill="#fff"/>
    <path id="Path_531" data-name="Path 531" d="M-871.062,1057.924c-.353,0-.522-.074-.625-.281v-.223a.653.653,0,0,1,.616-.257c2.95.006,5.93.006,8.731.006h4.594a.81.81,0,0,1,.188.016.332.332,0,0,1,.289.365.313.313,0,0,1-.276.341,1.681,1.681,0,0,1-.344.03h-5.026q-4.072,0-8.144,0Z" transform="translate(871.687 -1033.838)" fill="#fff"/>
    <path id="Path_532" data-name="Path 532" d="M-871.1,1005.039c-.318,0-.487-.08-.588-.283v-.223a.651.651,0,0,1,.611-.256h.009c1.293.006,2.569.007,3.646.007h3.4a.781.781,0,0,1,.191.017.332.332,0,0,1,.29.365.316.316,0,0,1-.279.341,1.489,1.489,0,0,1-.31.03h-2.748q-2.109,0-4.218,0Z" transform="translate(871.687 -984.366)" fill="#fff"/>
    <path id="Path_533" data-name="Path 533" d="M-869.857,952.142q-.7,0-1.4,0a.462.462,0,0,1-.431-.283v-.219a.635.635,0,0,1,.584-.257h.034c.267.006.561.008.925.008h1.065l.529,0a.477.477,0,0,1,.409.188.339.339,0,0,1,.017.327.385.385,0,0,1-.392.233C-868.929,952.141-869.368,952.142-869.857,952.142Z" transform="translate(871.687 -934.886)" fill="#fff"/>
  </g>
</svg>
