<svg xmlns="http://www.w3.org/2000/svg" width="32" height="32" viewBox="0 0 32 32">
  <g id="Group_41025" data-name="Group 41025" transform="translate(-807 -434)">
    <g id="Ellipse_159" data-name="Ellipse 159" transform="translate(807 434)" fill="none" stroke="#fff" stroke-width="1">
      <circle cx="16" cy="16" r="16" stroke="none"/>
      <circle cx="16" cy="16" r="15.5" fill="none"/>
    </g>
    <g id="settings-3-fill" transform="translate(815.8 442.801)">
      <path id="Path_6443" data-name="Path 6443" d="M0,0H14.4V14.4H0Z" fill="none"/>
      <path id="Path_6444" data-name="Path 6444" d="M6.971,2.125a5.994,5.994,0,0,1,2.454,0A2.4,2.4,0,0,0,12.673,4,5.994,5.994,0,0,1,13.9,6.124a2.4,2.4,0,0,0,0,3.749A6.026,6.026,0,0,1,12.672,12a2.4,2.4,0,0,0-3.246,1.873,5.994,5.994,0,0,1-2.455,0A2.4,2.4,0,0,0,3.725,12,5.994,5.994,0,0,1,2.5,9.871a2.4,2.4,0,0,0,0-3.747A6.026,6.026,0,0,1,3.726,4,2.4,2.4,0,0,0,6.971,2.126ZM8.2,9.8A1.8,1.8,0,1,0,6.4,8,1.8,1.8,0,0,0,8.2,9.8Z" transform="translate(-0.999 -0.799)" fill="#fff"/>
    </g>
  </g>
</svg>
