<svg id="Layer_1" data-name="Layer 1" xmlns="http://www.w3.org/2000/svg" viewBox="0 0 588.63 697.25"><path d="M816.82,878H517.57c-8-26.17-14.85-50.85-23.2-75-6.84-19.78-22.32-28.67-43-30.33-24-1.93-48.13-4.06-72-7.67-29.16-4.41-35.27-16-22.89-43.91,6-13.53,2.91-22.8-7.36-31.88-19.05-16.84-18.91-17,.12-35.92-17.6-4-20.95-15.3-17.56-31.27,3.06-14.41-2.05-23.32-18.3-27.13-34.32-8.06-40.2-25.79-19.66-55,4.48-6.37,9.45-12.92,15.58-17.53,35.71-26.84,42.7-64.07,38.14-105-3.58-32.14,1.58-62.66,14.48-91.84,39.49-89.3,107.46-138.82,205.64-144.15,52.42-2.84,103.59,5,152.35,25,125.62,51.53,178.23,161.91,136.48,291-9.67,29.89-25.76,58.54-43.35,84.77-15.89,23.71-23.88,48.08-25.43,75.77C784,723.18,797.73,786.3,811,849.49,812.9,858.3,814.62,867.13,816.82,878ZM745.16,345.38c.71-80.83-64.25-146.39-145.39-146.75-80.07-.36-145.55,64.35-146,144.28-.46,81,62.85,146.47,142.64,147.5C679.07,491.48,744.43,427.74,745.16,345.38Z" transform="translate(-281.92 -180.75)"/><path d="M484.21,416.26c3-5.41,5.7-10.47,8.47-15.54,21.93,7.06,52.4-14.85,55.75-40.24a143.15,143.15,0,0,0,1.39-19.83c-.18-23.23,1.11-45,30.12-51.83,2.86-.67,5.25-10.7,4.82-16.14-.57-7-5.29-13.51-6.33-20.52-2.23-15.08,6.49-25.66,20.2-26,14.06-.39,26.38,10.61,21.25,24.2-9.52,25.27-8.23,41.55,20.46,51.14,5,1.66,7.27,16.86,7.57,25.92.82,24.48,3,47.1,22.94,65.65,11.43,10.63,20.89,15.16,34.67,7.26l8.75,15.36-15,13-6.14-2.76c-2.38,18-13.57,24.43-30.1,24.41-42-.07-83.89,0-125.84,0-14.15,0-24.83-3.65-30.88-19.29C503.66,424.24,491.83,421.05,484.21,416.26Zm144.73-46.2c-.66,28.43,3.53,33.74,27.12,32.62Zm-59.15.34-27,32.29C566.5,403.88,570.45,398.91,569.79,370.4Z" transform="translate(-281.92 -180.75)"/></svg>