<svg id="Layer_1" data-name="Layer 1" xmlns="http://www.w3.org/2000/svg" viewBox="0 0 519.34 859.77"><path d="M605.6,647.8c-9.24,6.37-18.76,11.54-26.62,18.57q-47.93,42.86-94.84,86.83a26,26,0,0,0-7.62,14.6c-5.33,44.26-10,88.6-14.93,132.9a66.85,66.85,0,0,1-2.87,14.51c-5.64,16.1-22.52,26-38.72,23.11-18.05-3.2-31.07-17.39-30.13-35.19,1-19.76,3.66-39.45,5.83-59.14,3.78-34.46,7.91-68.89,11.55-103.37,1.17-11,5.55-20,13.8-27.31,10-8.89,19.79-18,30.66-28-9.44-3.05-17.88-5.69-26.26-8.49-21.68-7.26-42.17-16.89-60.53-30.67C322.63,614.46,308.74,569,326.87,519c11.36-31.26,29.84-57.53,59.58-73.91,22.39-12.33,45.57-23.23,68.4-34.77,9.36-4.73,18.83-9.25,28-14.38,2.29-1.29,4.86-4.55,4.92-7,1.48-56.87-5.41-112.27-30.88-164.06-16.35-33.26-40-59.81-72.43-78.45-19.23-11.06-25.12-32.41-14.55-50.18S401.63,74,420.89,85c63.3,36.2,100.45,92.19,121.18,160.45,14.55,47.88,19,97,17.82,146.88a36.85,36.85,0,0,0,3.89,17.35Q687.11,643.85,810.86,877.84c3.1,5.87,6.42,12,7.72,18.38a35.08,35.08,0,0,1-22.83,40.43c-16.66,6-34.59-.52-43.42-16.68-20.4-37.3-40.35-74.86-60.48-112.31q-40.53-75.42-81.08-150.83C609.41,654.3,607.91,651.83,605.6,647.8ZM458.29,612c-16.43-32.18-31.81-62.33-47.87-93.8-5.07,6.85-9.65,12.15-13.25,18.05-11.4,18.71-8.74,35.51,8.06,49.65C420.11,598.4,437.81,605.53,458.29,612Z" transform="translate(-299.98 -79.05)"/><path d="M371.31,383.13a71.59,71.59,0,0,1,0-143.18c39.48-.2,71.71,32,71.73,71.69A71.16,71.16,0,0,1,371.31,383.13Z" transform="translate(-299.98 -79.05)"/></svg>