<svg id="Layer_1" data-name="Layer 1" xmlns="http://www.w3.org/2000/svg" viewBox="0 0 909.69 586.32"><path d="M85.33,290.41c4.93-15.21,11.58-29.66,26.86-36.73,8.63-4,18.53-7.3,27.87-7.34,122.86-.48,245.72-.32,368.58-.3,1.16,0,2.32.16,4.15.29V417.27c-67.66,18.52-97.64,75.13-97.47,122.34.17,46.77,30.07,103,97.79,121.54V832.32H152.49c-40.09,0-52.11-8-67.16-44.4V686.64q59.88,0,119.76,0c21.62,0,31.66-9.84,31.68-31.2q.07-116.25,0-232.48c0-21.37-10.06-31.18-31.68-31.2q-59.88-.06-119.76,0Z" transform="translate(-85.33 -246)"/><path d="M85.33,445h97.44V633.34H85.33Z" transform="translate(-85.33 -246)"/><path d="M994.7,686.62c0,32.62.85,64-.25,95.31-1,27.84-22.58,48.27-50.44,50.21-2.65.18-5.32.17-8,.17H567.24V660.76c34.3-8.82,61.31-28,80-58.39,13.63-22.14,18.8-46.39,17.21-72.18-2.91-47-36.35-96.93-97.27-112.7V246h9.35q179.4,0,358.78,0c37.77,0,59.53,21.76,59.57,59.45,0,28.38,0,56.75,0,86.24h-10q-54.63,0-109.24,0c-22.3,0-32.18,9.66-32.19,31.63q-.08,115.92,0,231.83c0,21.53,10,31.41,31.5,31.43q54.62.06,109.24,0Z" transform="translate(-85.33 -246)"/><path d="M994.56,445.55V632.78H897.37V445.55Z" transform="translate(-85.33 -246)"/><path d="M513,603.76c-25.32-7.76-44.16-35.51-44.16-64.58s18.72-56.7,44.16-64.62Z" transform="translate(-85.33 -246)"/><path d="M567.19,474.56c25.41,7.89,44.16,35.53,44.16,64.61s-18.82,56.8-44.16,64.59Z" transform="translate(-85.33 -246)"/></svg>