<svg id="Layer_1" data-name="Layer 1" xmlns="http://www.w3.org/2000/svg" viewBox="0 0 814.9 778.68"><path d="M505.91,639.55l-98.24-241.8c26.53-16.49,52.77-31,77.09-48.25,70-49.55,122.12-114.18,159-191.52,3.15-6.61,10.31-11.3,15.6-16.89,5.13,5.83,12.3,10.82,15.08,17.61Q769.77,391.32,864,624.43c2.74,6.78,1.21,15.29,1.67,23-7.66-.15-16.09,1.74-22.87-.78C748.88,611.72,638.92,597.36,505.91,639.55Z" transform="translate(-155.1 -141.09)"/><path d="M383.86,405.82c33,81.81,65.1,161.51,97.73,242.44-5,2.5-9.16,5-13.61,6.78q-64.65,26.61-129.4,53c-35.16,14.24-64.25,2.35-78.66-32.5q-27.68-66.9-54.46-134.18c-13.45-33.66-1.42-62,32.08-75.82C285.66,445.69,333.91,426.18,383.86,405.82ZM288.43,542c24.2-10.29,47.18-19.58,69.55-30.17,2.88-1.36,4.84-10.49,3.14-14.09s-9.6-7.71-13-6.51c-22.29,8-44.33,16.85-65.8,26.82-3.38,1.57-5.12,10.42-4.49,15.51C278.26,536.7,284.58,539.11,288.43,542Zm100.1,16.42-5-5.51c-1.3-10.07-7.13-15.33-17-11.68-20.72,7.63-41.37,15.69-61.23,25.27-4.29,2.06-5.12,11.29-7.55,17.22,5.74,1.72,12.46,6.26,17.05,4.67,20.32-7,40.05-15.81,60-24C379.35,562.47,383.93,560.4,388.53,558.41Zm14.53,46.17c-2.57-13.32-8.92-17.35-19.6-13.12-19.1,7.56-38.48,14.61-56.83,23.72-4.92,2.45-6.55,11.55-9.68,17.6,6.17,1.75,13.32,6.41,18.34,4.73,19.43-6.53,38.33-14.77,57.08-23.12C396.84,612.4,400,607.49,403.06,604.58Z" transform="translate(-155.1 -141.09)"/><path d="M367.76,759c-26.54,7-27.42,6.51-36-20.67l154.76-62.86c14.06,23.67,13.5,25.92-10,38.52,6.93,17.63,13.86,35.54,21,53.36,9.52,23.7,19.48,47.22,28.77,71,12.27,31.43-.86,64.18-30.31,76.75-29.79,12.72-64-1.08-77.39-32.41C401.16,841.87,384.81,800.65,367.76,759Z" transform="translate(-155.1 -141.09)"/><path d="M758.67,293.89c38.79-2,76.62,23.32,93.27,61.51,17,39,9.26,80.77-22,111.65Z" transform="translate(-155.1 -141.09)"/><path d="M175.38,537.32c22,54.39,43.45,107.59,64.94,160.82-18,5.71-35.25-1.16-43.47-19.51Q176.17,632.49,158,585.22C150.77,566.54,157.27,550.58,175.38,537.32Z" transform="translate(-155.1 -141.09)"/><path d="M837.87,191c-.6,2.1-.89,4.37-1.87,6.29-9.3,18.23-18.19,36.7-28.55,54.32-2.05,3.48-12,6.46-14.51,4.58-4.11-3.08-8.46-11.76-6.83-15.56a501.69,501.69,0,0,1,27.77-54.66c2.21-3.79,9.93-5.77,15.2-5.94,4.62-.14,9.37,3.41,14.06,5.33Z" transform="translate(-155.1 -141.09)"/><path d="M898.77,402.57C896,399.43,889,395,888.3,389.78c-.54-3.91,6.34-11.92,11-12.93a423.77,423.77,0,0,1,57.37-8.39c4.44-.33,12.66,6.17,13.26,10.36s-5.49,12.6-9.91,13.6C941.22,396.72,921.93,399,898.77,402.57Z" transform="translate(-155.1 -141.09)"/><path d="M947.48,508.12c-22.52-7.75-42.66-14-62.11-22-3.71-1.52-7.88-11.76-6.21-14.41,2.77-4.39,11-9.18,15.4-8a441.6,441.6,0,0,1,56.66,19.06c4.26,1.76,8.17,10.39,7.73,15.46C958.62,502.06,951.07,505.25,947.48,508.12Z" transform="translate(-155.1 -141.09)"/><path d="M926.29,267.27c-3.3,4.44-5.49,9.09-9.1,11.92-13.9,10.87-27.72,22.05-42.76,31.14-4.83,2.91-13.35-.31-20.18-.72,1.57-6.27,1.09-14.9,5.09-18.38a394.45,394.45,0,0,1,43.83-32.44c4.2-2.73,11.3-2.25,16.71-1.27C922.28,258,923.8,263.26,926.29,267.27Z" transform="translate(-155.1 -141.09)"/></svg>