<svg id="Layer_1" data-name="Layer 1" xmlns="http://www.w3.org/2000/svg" viewBox="0 0 537.64 900.06"><path d="M664.16,574.53,523.69,612.14c3.5,4,6.54,7.5,9.61,11,30.14,34.08,60.18,68.24,90.49,102.16,11.16,12.49,14.83,26.84,12.69,43q-10.77,81.48-21.62,163c-.83,6.27-1.61,12.56-2.61,18.8-4.13,25.81-26.5,43-51.28,39.59-25.75-3.59-43.08-26.58-39.68-52.78q10.23-78.78,20.6-157.56a11.62,11.62,0,0,0-3.08-10.3q-66.88-75.31-133.55-150.84c-9.76-11-12.09-23.43-10-37.6,7.6-50.89,14.66-101.87,22.34-152.75,5.71-37.88,12.06-75.66,18.1-113.48.2-1.27.16-2.58.27-4.43l-28.95,3.89c-9.25,1.23-18.48,2.64-27.75,3.59-3.75.38-5.28,1.9-6.09,5.53q-15,67.29-30.2,134.52c-1.32,5.85-2.56,11.72-4,17.53-4.47,17.95-22.3,29.24-40.08,25.46-18.24-3.89-30.8-21.37-27.09-39.47,6-29.35,12.87-58.54,19.42-87.78q10.37-46.32,20.81-92.61C315.79,264,326.32,254,343,251.8q78.51-10.37,157.05-20.6c9.11-1.2,17.22,1.5,25.57,4.9,15.86,6.47,32.12,12,48.21,17.91,12.5,4.59,24.85,9.68,37.55,13.64,19.58,6.12,28.94,18.75,25.94,42.72-1.46,11.65-4.59,23.18-7.93,34.48-14.88,50.29-30.12,100.47-45.22,150.69-.33,1.09-.56,2.21-1,4.11,4.34-1.1,8.15-2,11.93-3q45.09-12.15,90.17-24.32c23.74-6.38,44.28,1.09,55.69,20,5.16,8.56,6.21,18.2,7.83,27.69,9.22,54,18.3,108,27.56,162,4.59,26.71-12,51.38-37.72,55.73s-49.14-13.55-53.55-40.58c-6.53-39.94-13.36-79.82-20.07-119.73C664.87,576.65,664.56,575.9,664.16,574.53Z" transform="translate(-271.18 -90.05)"/><path d="M677,171.48c0,45.07-36,81.45-80.63,81.42-44.82,0-81.19-36.7-81-81.73.15-44.85,36.44-81.15,81.1-81.12S676.92,126.29,677,171.48Z" transform="translate(-271.18 -90.05)"/><path d="M743.64,444.19c-35.79,0-64.74-29.38-64.67-65.55s29.13-65.49,64.84-65.51c35.87,0,65.16,29.7,65,65.93A65.22,65.22,0,0,1,743.64,444.19Z" transform="translate(-271.18 -90.05)"/></svg>