<svg xmlns="http://www.w3.org/2000/svg" width="32" height="32" viewBox="0 0 32 32">
  <g id="Group_40835" data-name="Group 40835" transform="translate(-807 -352)">
    <g id="Ellipse_158" data-name="Ellipse 158" transform="translate(807 352)" fill="#fff" stroke="#fca846" stroke-width="1">
      <circle cx="16" cy="16" r="16" stroke="none"/>
      <circle cx="16" cy="16" r="15.5" fill="none"/>
    </g>
    <path id="Spending" d="M117.848,40.23a.34.34,0,0,1,.209.357c-.005.246,0,.492,0,.738,0,.273-.091.364-.362.364h-1.965a2.468,2.468,0,0,1,.2.324c.116.277.224.559.325.842.027.077.053.109.139.108.444-.005.888,0,1.332,0,.251,0,.343.093.344.343v.775c0,.247-.1.34-.348.341-.436,0-.872,0-1.307,0-.077,0-.11.019-.125.1a3.252,3.252,0,0,1-1.094,1.94,4.124,4.124,0,0,1-1.857.888c-.188.041-.379.071-.585.109.039.045.073.084.107.121,1.358,1.471,2.63,3.017,3.9,4.562a.276.276,0,0,1,.063.321.292.292,0,0,1-.3.168q-.823,0-1.647,0a.357.357,0,0,1-.289-.146c-.788-.929-1.571-1.863-2.37-2.783-.611-.7-1.241-1.39-1.87-2.079a.633.633,0,0,1-.193-.484c.014-.3,0-.6,0-.9a.3.3,0,0,1,.341-.342c.5-.008,1,0,1.5-.031a2.871,2.871,0,0,0,1.572-.525,1.619,1.619,0,0,0,.6-.831c.008-.026.011-.053.019-.091h-3.651c-.291,0-.377-.085-.378-.371V43.3c0-.241.1-.336.339-.336h3.573c-.031-.057-.052-.1-.077-.142a1.622,1.622,0,0,0-.822-.627,4.154,4.154,0,0,0-1.51-.226h-1.114c-.3,0-.386-.093-.386-.393,0-.327.005-.654,0-.98a.349.349,0,0,1,.2-.363Z" transform="translate(708.882 321.57)" fill="#fca846"/>
  </g>
</svg>
