<svg xmlns="http://www.w3.org/2000/svg" width="30.95" height="30.95" viewBox="0 0 30.95 30.95">
  <path id="Path_5734" data-name="Path 5734" d="M29.073,29.073l-.058-9.652h.936V16.789H28.2v-3.2L23.166,6.011H16.407L15.414,4.5V2.632h3.51V0H14.536V4.5l-.993,1.507H6.784L1.755,13.585v3.2H0v2.632H.936L.877,29.073h.936V19.421h7.9v9.652H0v.877H29.95v-.877H20.24V19.421h7.9l.059,9.652ZM15.414.877h2.632v.877H15.414ZM20.24,16.789V14.156h7.078v2.632Zm2.456-9.9,4.243,6.39H21.117V11.524h-1.08L16.985,6.889Zm-3.709,4.635H10.963l4.012-6.091ZM7.255,6.889h5.711L9.913,11.524H8.833v1.755H3.012ZM2.632,14.156H9.71v2.632H2.632ZM.877,18.543v-.877H9.71v.877ZM15.853,29.073H14.1v-7.02a.877.877,0,1,1,1.755,0Zm.877,0v-7.02a1.755,1.755,0,1,0-3.51,0v7.02H10.588V14.156h3.949v-.877H9.71V12.4H20.24v.877h-5.7v.877h4.826V29.073Zm3.51-11.407h8.833v.877H20.24Z" transform="translate(0.5 0.5)" fill="#fff" stroke="#fff" stroke-width="1"/>
</svg>
