<svg xmlns="http://www.w3.org/2000/svg" width="35.604" height="28.434" viewBox="0 0 35.604 28.434">
  <g id="Group_1462" data-name="Group 1462" transform="translate(0.5 0.5)">
    <path id="Path_529" data-name="Path 529" d="M-645.655,256.374a.588.588,0,0,1-.568-.66c0-.219,0-.439,0-.658,0-.424,0-.862-.011-1.3a1.244,1.244,0,0,0-.329-.781c-.551-.567-1.119-1.134-1.668-1.682q-.379-.378-.757-.758c-.4-.4-.4-.667,0-1.064q.414-.416.83-.831c.533-.532,1.084-1.083,1.62-1.632a1.119,1.119,0,0,0,.31-.736c.009-2.379.008-4.8.007-7.135v-1.056c0-.064,0-.121-.01-.182,0-.027,0-.058-.007-.093l-.041-.6-.7.237c-.087.029-.169.057-.249.086l-.556.2c-.424.154-.862.313-1.294.457a.831.831,0,0,0-.613.864c0,.855,0,1.726,0,2.568,0,1.183,0,2.406.011,3.61a1.2,1.2,0,0,1-.413.971,9.3,9.3,0,0,1-3.815,2.035,20.009,20.009,0,0,1-5.769.762c-.565,0-1.143-.016-1.767-.05a16.7,16.7,0,0,1-5.236-1.044,8.413,8.413,0,0,1-2.766-1.675,1.285,1.285,0,0,1-.442-1.036c.014-1.21.013-2.439.013-3.628,0-.836,0-1.7,0-2.551a.866.866,0,0,0-.631-.907c-1.433-.521-2.887-1.061-4.293-1.584l-1.292-.48c-.466-.173-.529-.4-.53-.593s.057-.427.518-.594l5.341-1.935q5.421-1.963,10.841-3.929a.838.838,0,0,1,.291-.052,1.38,1.38,0,0,1,.469.1q5.435,1.973,10.872,3.938l3.713,1.343c.491.177,1,.361,1.5.546.328.123.494.319.492.584,0,.1,0,.4-.5.584-.43.159-.93.343-1.421.508a.76.76,0,0,0-.567.783q.005,2.033.005,4.066c0,1.613,0,3.28.008,4.921a1.071,1.071,0,0,0,.31.7c.348.355.7.712,1.049,1.056.379.379.771.77,1.15,1.159a5.918,5.918,0,0,1,.43.517l.109.14v.228l-.141.175c-.175.218-.341.424-.521.611-.655.677-1.328,1.35-2,2a1.235,1.235,0,0,0-.4.982c.014.534.01,1.082.006,1.611l0,.212a.6.6,0,0,1-.575.668Zm-2.136-6.323,2.114,2.113,2.172-2.166-2.12-2.125Zm-20.933-10.6q0,.678,0,1.346c0,1.367,0,2.657-.009,3.974a1.051,1.051,0,0,0,.55,1.014c.189.1.382.214.569.323a8.472,8.472,0,0,0,1.589.779,19.649,19.649,0,0,0,6.14.971,23.291,23.291,0,0,0,4.707-.5,9.944,9.944,0,0,0,3.706-1.515,1.323,1.323,0,0,0,.638-1.208c-.02-1.143-.017-2.308-.014-3.434q0-.638,0-1.276v-1.079l-.778.268-.236.082-1.816.654c-1.861.669-3.786,1.362-5.676,2.051a1.369,1.369,0,0,1-.473.092,1.339,1.339,0,0,1-.476-.094c-1.9-.717-3.843-1.433-5.718-2.126l-1.718-.635c-.084-.031-.167-.057-.254-.085l-.127-.041-.608-.2Zm9.138-9.253a1.466,1.466,0,0,0-.484.083c-2.762.991-5.568,2.007-8.28,2.99l-1.362.493-2.391.867-2.223.807,1.308.5.193.074,2.521.934c3.249,1.2,6.61,2.449,9.912,3.682a1.627,1.627,0,0,0,.577.11,1.647,1.647,0,0,0,.568-.106c3.352-1.216,6.761-2.447,10.059-3.637l2.544-.918.342-.125,1.342-.491-1.118-.451-.132-.054c-.067-.028-.112-.046-.156-.062l-1.635-.592c-3.669-1.329-7.463-2.7-11.2-4.046A1.142,1.142,0,0,0-659.585,230.2Z" transform="translate(676.618 -228.94)" fill="#fff" stroke="#fff" stroke-width="1"/>
  </g>
</svg>
