<svg xmlns="http://www.w3.org/2000/svg" width="38.465" height="28.614" viewBox="0 0 38.465 28.614">
  <g id="Group_39801" data-name="Group 39801" transform="translate(0.5 0.5)">
    <path id="Path_530" data-name="Path 530" d="M-841.975,723.613c-1.915,0-3.778,0-5.54-.012a1.388,1.388,0,0,1-.619-.2c-7.827-4.321-15.519-8.577-22.864-12.649a3.361,3.361,0,0,1-.518-.385c-.056-.047-.113-.1-.171-.143v-.207l.531-1,1.312-2.467c.231-.434.326-.482.472-.482a1.729,1.729,0,0,1,.46.1l.159.048.091-.139.08-.121c.06-.091.121-.182.18-.276l5.757-9.2c.25-.4.37-.478.493-.478a1.329,1.329,0,0,1,.538.2l.874.468q1.435.769,2.87,1.539a2.347,2.347,0,0,1,1.258,3.021c-.069.229-.135.458-.208.706l-.227.777.4-.132.153-.049c.09-.028.167-.053.245-.082l1.884-.724q1.453-.559,2.907-1.117a2.153,2.153,0,0,1,.767-.153,1.352,1.352,0,0,1,.988.389,1.719,1.719,0,0,1,.439,1.264,2.458,2.458,0,0,0,.381,1.36c1.7,2.8,3.411,5.658,5.066,8.422l.014.023a.794.794,0,0,0,.685.443l.794.052c1.529.1,3.11.2,4.657.356a3.8,3.8,0,0,1,3.379,3.1,1.059,1.059,0,0,0,.056.175l.009.023v4.3a4.343,4.343,0,0,1-.778,1.792,3.693,3.693,0,0,1-3,1.456C-839.371,723.611-840.707,723.613-841.975,723.613Zm.845-.866.963,0,.965,0c.471,0,.859,0,1.222-.008a3,3,0,0,0,2.143-.921,2.594,2.594,0,0,0,.71-1.915l-.01-.211H-840.4c-1.868,0-4.08,0-6.33-.012a1.764,1.764,0,0,1-.828-.224c-5.784-3.309-11.659-6.683-17.341-9.946l-3.626-2.082c-.092-.053-.187-.1-.286-.157l-.142-.076-.2-.107-1.51,2.84.178.109.1.064c.069.043.134.085.2.123l.288.159c7.219,3.995,14.684,8.125,22.029,12.181a1.427,1.427,0,0,0,.661.171c1.236.006,2.44.007,3.454.007Zm-9.208-9.119a.4.4,0,0,1,.278.112.42.42,0,0,1,0,.624,2.98,2.98,0,0,1-.207.22l-.086.086-.852.868-.515.524.233.147.122.079c.073.047.136.088.2.126l.819.472c1,.577,2.037,1.175,3.063,1.751a1.549,1.549,0,0,0,.732.188c2.388.006,4.731.007,6.906.007h4.533v-.222c0-.247,0-.491.006-.732.006-.539.012-1.049-.012-1.568a2.817,2.817,0,0,0-2.4-2.643c-.755-.088-1.524-.141-2.267-.193s-1.538-.107-2.3-.2a7.2,7.2,0,0,0-.845-.051,6.519,6.519,0,0,0-2.545.514.908.908,0,0,1-.326.085c-.115,0-.222-.053-.432-.326q-3.148-4.082-6.293-8.167a.719.719,0,0,1-.211-.477c.016-.121.126-.254.345-.42q.558-.422,1.12-.84l.832-.623a1.292,1.292,0,0,0,.21-1.381.59.59,0,0,0-.506-.286,1.236,1.236,0,0,0-.443.111l-.043.017-1.523.585c-1.491.571-3.032,1.163-4.542,1.759a1.125,1.125,0,0,1-.414.089,1.012,1.012,0,0,1-.535-.171c-1.283-.781-2.594-1.563-3.862-2.32l-1.305-.78c-.077-.046-.155-.091-.237-.137l-.117-.067-.184-.106-1.059,1.665.833.619c.489.363.966.716,1.442,1.072a4.624,4.624,0,0,1,2.009,3.566,17.994,17.994,0,0,1-.094,2.656,1.277,1.277,0,0,0,.848,1.51,1,1,0,0,0,.348.081h0a.628.628,0,0,0,.417-.172c.808-.686,1.639-1.374,2.442-2.04l.738-.613a1.651,1.651,0,0,1,.2-.154.483.483,0,0,1,.244-.07.405.405,0,0,1,.313.146.415.415,0,0,1-.016.553,2.634,2.634,0,0,1-.3.274l-.031.026c-.742.619-1.485,1.236-2.242,1.865l-.932.774.277.159.544.31c.449.255.874.5,1.295.756a.689.689,0,0,0,.367.12.692.692,0,0,0,.435-.185c.722-.591,1.582-1.289,2.481-1.976a.863.863,0,0,1,.447-.189.187.187,0,0,1,.035,0,.662.662,0,0,1,.341.335c.029.061.1.2-.227.462-.564.452-1.129.9-1.706,1.362l-.95.757,2.9,1.67.382-.379c.2-.2.387-.383.575-.572.1-.1.207-.211.31-.317.193-.2.392-.4.6-.594A.473.473,0,0,1-850.338,713.628Zm-1.351-8.641.262.344.232.3,1.846,2.4,3.23,4.192c.279.362.431.56.719.56h0a1.842,1.842,0,0,0,.691-.23l.228-.1-5.333-8.869Zm-16.338,1.735,6.349,3.65.019-.361c.013-.247.026-.487.039-.723.028-.52.054-1.011.077-1.506a3.527,3.527,0,0,0-1.031-2.831c-.576-.541-1.217-1.034-1.837-1.511-.273-.21-.555-.427-.83-.647l-.194-.155Zm4.552-7.181,5.486,3.28.234-.779c.108-.361.21-.7.311-1.039a1.527,1.527,0,0,0-.865-2.054c-1-.538-2.018-1.081-3-1.607l-.158-.084c-.069-.037-.137-.068-.21-.1l-.1-.046-.181-.085Z" transform="translate(871.687 -696)" fill="#fff" stroke="#fff" stroke-width="1"/>
    <path id="Path_531" data-name="Path 531" d="M-870.97,1058.035c-.405,0-.6-.085-.717-.322v-.256a.749.749,0,0,1,.707-.294c3.381.007,6.8.007,10.009.007h5.267a.928.928,0,0,1,.215.018.381.381,0,0,1,.331.418.358.358,0,0,1-.317.391,1.921,1.921,0,0,1-.395.034h-5.762q-4.668,0-9.337,0Z" transform="translate(871.687 -1030.422)" fill="#fff" stroke="#fff" stroke-width="1"/>
    <path id="Path_532" data-name="Path 532" d="M-871.012,1005.15c-.365,0-.558-.092-.675-.325v-.255a.746.746,0,0,1,.7-.294h.01c1.482.007,2.945.008,4.18.008h3.9a.9.9,0,0,1,.219.02.38.38,0,0,1,.333.419.363.363,0,0,1-.32.391,1.713,1.713,0,0,1-.355.035h-3.151q-2.418,0-4.836,0Z" transform="translate(871.687 -981.451)" fill="#fff" stroke="#fff" stroke-width="1"/>
    <path id="Path_533" data-name="Path 533" d="M-869.589,952.254q-.8,0-1.6,0a.53.53,0,0,1-.494-.324v-.251a.728.728,0,0,1,.67-.295h.04c.306.007.643.01,1.061.01l.611,0h.61q.3,0,.607,0a.546.546,0,0,1,.469.215.389.389,0,0,1,.02.375.441.441,0,0,1-.449.268C-868.525,952.252-869.028,952.254-869.589,952.254Z" transform="translate(871.687 -932.471)" fill="#fff" stroke="#fff" stroke-width="1"/>
  </g>
</svg>
