<svg id="Layer_1" data-name="Layer 1" xmlns="http://www.w3.org/2000/svg" viewBox="0 0 266.75 257.61"><path d="M269.66,65.86c-1.93,4-5.2,5.3-9.53,5.16-6.41-.2-12.85,0-19.27-.06-1.33,0-2.2.06-2.45,1.8-.87,6-4.61,9.69-10.15,11.75a7,7,0,0,0-2.44,1.31c-11.73,11.36-23.4,22.78-35.11,34.14-11,10.69-24.92,13-38.82,6.36-3.06-1.44-6.06-3-9.16-4.35a2.86,2.86,0,0,0-2.47.17,32.73,32.73,0,0,1-43.36-.62,4.67,4.67,0,0,0-.92-.46l-4.24,15.57c-1.68,6.19-3.27,12.41-5.08,18.56a2.91,2.91,0,0,0,1.26,3.68,223.65,223.65,0,0,1,36.32,35.34,227,227,0,0,1,31,50.07,14.19,14.19,0,0,1-6.76,19,14,14,0,0,1-19-6.76c-6.8-14.21-14.59-27.8-24.28-40.25A199.44,199.44,0,0,0,71.17,182a3.57,3.57,0,0,0-.68-.33C69,187.85,67.67,194,65.93,200a121.75,121.75,0,0,1-21.45,42.18,201.53,201.53,0,0,1-18.56,20c-4.23,4.07-9.76,4.33-15.07,1.67a13.66,13.66,0,0,1-7.94-13c0-4.53,2.22-8.09,5.48-11.11a107.12,107.12,0,0,0,20.79-25.88c9-16,14-33.06,13.79-51.41a77.24,77.24,0,0,1,3.15-21.74C51.58,121,56.89,101.24,62.26,81.5c2.89-10.6,10.71-17,21.19-17a20.8,20.8,0,0,1,14.17,5.38l3.64-9.15C93,60,85.89,56.62,80.81,49.62a25.65,25.65,0,0,1-5-15.32c0-12.06,8-22.14,20.23-25.54,10.11-2.81,22.74,2.43,28.24,11.51,6.2,10.22,6.11,24.3-6.47,35.37h3.69q69,0,138.07-.06c4.61,0,8.11,1.22,10.09,5.59ZM104.4,84c.3,1.42.12,3.93,1.28,5.36a135.12,135.12,0,0,0,10.06,10.54c2.17,2.15,4.54,2,6.55-.27,2.63-3,5.16-6.09,7.73-9.15,1.36-1.62,2.7-3.26,4.4-5.32-6.42,0-12.22.14-18,0C112.51,85,108.62,84.44,104.4,84Zm56.14,14.66c1.23.63,2.07,1.07,2.92,1.48,4,1.91,4.75,1.77,8-1.36l8-7.78,6.08-5.84c-4,0-7.19.12-10.35,0s-5.79-.24-6.77,3.62c-.31,1.24-1.54,2.27-2.42,3.34C164.28,94.25,162.49,96.35,160.54,98.69Z" transform="translate(-2.91 -8)"/></svg>