<svg xmlns="http://www.w3.org/2000/svg" width="32.867" height="51.519" viewBox="0 0 32.867 51.519">
  <path id="Spending" d="M142.094,40.23a1.414,1.414,0,0,1,.868,1.484c-.022,1.022,0,2.046,0,3.068,0,1.136-.379,1.511-1.5,1.513h-8.166a10.26,10.26,0,0,1,.842,1.344c.481,1.152.929,2.323,1.351,3.5.112.321.22.451.579.448,1.845-.021,3.69-.013,5.534-.01,1.044,0,1.426.385,1.431,1.425v3.218c0,1.025-.4,1.413-1.444,1.417-1.811,0-3.623.008-5.432,0-.321,0-.457.079-.52.422a13.51,13.51,0,0,1-4.547,8.062,17.136,17.136,0,0,1-7.714,3.69c-.783.168-1.574.294-2.431.452.16.188.3.35.444.5,5.643,6.113,10.928,12.534,16.2,18.953a1.145,1.145,0,0,1,.26,1.333,1.215,1.215,0,0,1-1.226.7q-3.419-.011-6.841,0a1.484,1.484,0,0,1-1.2-.6c-3.275-3.862-6.527-7.741-9.846-11.563-2.54-2.923-5.155-5.776-7.77-8.636a2.632,2.632,0,0,1-.8-2.012c.059-1.239.011-2.48.018-3.721a1.249,1.249,0,0,1,1.417-1.421c2.078-.035,4.16,0,6.233-.128a11.928,11.928,0,0,0,6.533-2.182,6.729,6.729,0,0,0,2.476-3.454c.034-.107.047-.221.079-.379H111.75c-1.208,0-1.567-.353-1.569-1.543V52.985c0-1,.4-1.4,1.409-1.4h14.844c-.128-.236-.217-.42-.321-.59a6.738,6.738,0,0,0-3.416-2.607,17.258,17.258,0,0,0-6.273-.937H111.8c-1.231,0-1.6-.385-1.6-1.632,0-1.357.022-2.716-.01-4.074a1.451,1.451,0,0,1,.834-1.507Z" transform="translate(-110.162 -40.23)" fill="#4db748"/>
</svg>
