<svg id="Layer_1" data-name="Layer 1" xmlns="http://www.w3.org/2000/svg" viewBox="0 0 683.59 747.77"><path d="M553.11,913.54c-71.77-.77-143.23-4.5-213.74-18.9-30.24-6.18-59.93-14.27-87.13-29.42-19-10.6-34.82-24.51-38.82-47.13-1.8-10.17-2.94-21.4-.53-31.2,9.53-38.62,24.83-74.82,51.15-105.42,19.17-22.28,43-36.85,72.24-41.51,8.1-1.29,13.16-5.36,17-12,8.8-15,12.59-31.48,14.66-48.48,6.52-53.67-.34-106.7-6.45-159.93-2.34-20.4-.07-41.54,1.9-62.17,3.55-37.35,12.1-73.6,30.51-106.74,32.22-58,81.31-86.95,148.12-84.79,17.8.57,35.81-.59,53.38,1.67,53,6.81,90.94,36.19,116.34,82.3,21.43,38.9,28.62,81.57,33,125.18,3.16,31.69-3,62.43-5.86,93.56-4.17,45.29-7.07,90.6,4,135.44a111.24,111.24,0,0,0,4.74,13.76c4.89,12.37,11.91,20.85,26.81,23.4,35.12,6,60.37,27.59,79.93,56.26,19.38,28.43,33.2,59.58,39.43,93.36,4.95,26.92-4.74,49.49-27,66-20.08,14.91-43.27,23.09-67,29.76C746,901.73,690.62,907.54,635,910.7,607.72,912.25,580.4,912.63,553.11,913.54Zm-141-510.12c-8-2.88-11.34,2.52-13,9.37-4.32,17.61-.76,34.32,6.94,50.28,3.5,7.26,8.19,13.53,17.81,11.47,1.52,4.09,2.78,7.64,4.16,11.14,13.73,35,33.1,66,62.18,90.47,37.18,31.28,81.53,34.07,119.7,5.22,14.64-11.08,27.34-25.26,39-39.56,16.18-19.75,26.42-43.12,35.73-66.12,5.32-2.09,11.42-4.13,14.09-8.33,10.34-16.3,14-34.39,9.95-53.49-.87-4.08-3.82-7.71-6.4-12.68l-17.56,16.67c-3.33-1.67-6-3-8.6-4.34-59.76-30.74-119.59-61.36-179.2-92.39-8.55-4.45-16.83-5.08-25.74-3.15-22.5,4.86-36,20.32-44.42,40.18C420.7,372.45,417.05,387.76,412.08,403.42ZM646.41,589.68c-26.65,24.83-55.63,43.22-92.39,43.26-37.09,0-66.38-18.26-93.12-43.65-2,22.33-17.2,32.17-35.67,40.79,3.94,6,6.65,12.11,11,16.56,31.42,32.05,70.16,48.51,114.66,49,46.67.55,87.18-16.19,119.86-50.06,4.22-4.37,6.56-10.57,10.1-16.46C662.3,621.07,649,610.55,646.41,589.68Z" transform="translate(-211.52 -165.77)"/></svg>