<svg id="Layer_1" data-name="Layer 1" xmlns="http://www.w3.org/2000/svg" viewBox="0 0 645.6 610.36"><defs><style>.cls-1{fill:#fff;}</style></defs><path d="M64.4,608.79H89.46c.5-9.25,1-17.66,1.48-27.31l31.52-2V316.78h82.15V579.16h66.92V316.89h83.34V579.6h65.67V316.94h83.33V579.53H570V560.42c0-75.95.33-151.91-.3-227.85-.12-13.68,4.07-17.62,17.33-17,21.38,1,42.84.27,65.85.27V580.21h31.35c.49,9.8.9,18.15,1.39,27.92L710,609.66v60.55H64.4Z" transform="translate(-64.4 -59.86)"/><path d="M83.82,229.16c5.55-3.8,7.6-5.43,9.85-6.71q141.78-80.19,283.76-160c4.94-2.76,13.84-3.59,18.48-1q143.59,80.23,286.56,161.63c2.06,1.17,3.81,2.87,8,6.11Z" transform="translate(-64.4 -59.86)"/><path d="M81.38,296.78V250.46h612v46.32Z" transform="translate(-64.4 -59.86)"/><path class="cls-1" d="M389.11,148.5l7.31,2.65c2.59.94,5.2,1.87,7.8,2.83s4.11,2.56,4.3,5.32a7.18,7.18,0,0,1-1.57,4.9l-16.06,21.39c-.54.73-1.06,1.48-1.64,2.18a5.21,5.21,0,0,1-5.34,2.13,4.5,4.5,0,0,1-3.46-5.34,2,2,0,0,1,.09-.35,8.45,8.45,0,0,1,1.13-2.39c3.88-5.85,7.83-11.68,11.75-17.52.15-.21.28-.42.47-.7l-2.35-.67-16.41-4.58c-2.9-.82-4.9-2.54-5.41-5.63a9.48,9.48,0,0,1,1.07-6q4.53-8.93,9.08-17.84c.16-.32.32-.63.51-1l-4.09-.55c-3.06-.4-6.11-.8-9.17-1.18a2.38,2.38,0,0,0-1.15.17q-6.93,3-13.84,6.12a5.23,5.23,0,0,1-3.32.49,3.71,3.71,0,0,1-3-4.34,3.79,3.79,0,0,1,.71-1.6,6,6,0,0,1,1.81-1.54q7.9-4.23,15.86-8.38a7.34,7.34,0,0,1,4.08-.6l19.1,1.38a56.45,56.45,0,0,1,6.23.65,12.3,12.3,0,0,1,6.84,3.87,8.53,8.53,0,0,1,.92,11.1c-1.37,2-3,3.81-4.54,5.69-2.38,2.92-4.78,5.8-7.18,8.7Z" transform="translate(-64.4 -59.86)"/><path class="cls-1" d="M379.62,162.38l-1.05,2.69c-1.68,4.3-3.38,8.6-5,12.92a10.21,10.21,0,0,1-2.91,4.13c-2.89,2.53-5.67,5.18-8.49,7.8l-11.92,11a6.13,6.13,0,0,1-3.69,1.78,4.55,4.55,0,0,1-4.66-6.33,7.63,7.63,0,0,1,1.55-2.27c5.93-6.15,11.89-12.25,17.83-18.38a2.83,2.83,0,0,0,.65-1.11q2.76-9,5.5-18c.06-.18.12-.36.18-.56.06,0,.13.06.16.11a8.29,8.29,0,0,0,5.51,4.4L379,162.2A4.6,4.6,0,0,1,379.62,162.38Z" transform="translate(-64.4 -59.86)"/><path class="cls-1" d="M406,119.51a10.62,10.62,0,1,1,10.62-10.61v0A10.61,10.61,0,0,1,406,119.51Z" transform="translate(-64.4 -59.86)"/><path class="cls-1" d="M401.3,137.54c2.69-3,4.55-6.22,4.08-10.55l8.34,8.09.65-.38,11.21-6.8a5.21,5.21,0,0,1,3.49-.89,3.73,3.73,0,0,1,2.67,5.73,6.44,6.44,0,0,1-1.7,1.75c-4.75,3.38-9.54,6.71-14.3,10.07a4.82,4.82,0,0,1-5.53.27,6.83,6.83,0,0,1-1.1-.74l-7.51-6.34Z" transform="translate(-64.4 -59.86)"/></svg>