<svg id="Layer_1" data-name="Layer 1" xmlns="http://www.w3.org/2000/svg" viewBox="0 0 560.01 712.86"><path d="M583.27,614.64c-14.7-77.18-78-140.76-155-156.18-6-1.19-10.3-.27-15.3,3.22a169.07,169.07,0,0,1-97.49,30.66c-18.35.08-36.67,0-54.67-4.22A173.6,173.6,0,0,1,197,458.9a6.79,6.79,0,0,0-5.89-1.31C109.57,472.93,47.57,533.67,30.77,615c-1.63,7.88-2.21,16-3.3,24-.17,1.28-.44,2.55-.66,3.83v15.68c4,19.49,17.39,31.71,33,42,20.75,13.69,43.77,22.31,67.43,29.31,32.25,9.52,82.9,14.61,116.32,17.92,15.69,1.55,98.46-2,130.23,3.66l21.55-3.64c44.9-5.17,89-13.95,130.69-32.17a212.54,212.54,0,0,0,26.43-14c15.67-9.66,29-21.63,34.36-40.19v-25C585.65,629.16,584.65,621.86,583.27,614.64Z" transform="translate(-26.81 -38.57)"/><path d="M-98,708.09" transform="translate(-26.81 -38.57)"/><path d="M315.67,38.57c7.05.91,14.14,1.58,21.15,2.77,67,11.41,119.1,45.84,156.09,102.74,21.24,32.68,32.41,68.87,34.93,107.76a5.53,5.53,0,0,0,2.28,3.79c12.65,7.73,19,18.94,19.07,33.73,0,24.17-.14,48.33,0,72.49.23,30.69-31.2,47.48-56.94,34.16-1.79-.93-3-1.14-4.75.12-23.55,16.52-50.06,25.49-78.15,30.28-6.56,1.12-13.22,1.65-19.79,2.7a6.61,6.61,0,0,0-3.89,2.34c-4.81,6.49-11.09,9.89-19.19,9.89H337.56a22.4,22.4,0,0,1-22.68-22.12v-.15c-.09-12.62,9.78-22.52,22.66-22.62,9.76-.07,19.52,0,29.28,0a22.72,22.72,0,0,1,17.61,8.12,5.28,5.28,0,0,0,3.75,1.83c30-3,58.38-10.77,84-27.32,2.31-1.49,2.74-2.78,2-5.42a39.81,39.81,0,0,1-1.52-10.52q-.2-37.32,0-74.63c0-14,6.24-24.67,18-32.08,2-1.25,2.67-2.34,2.5-4.76A192.15,192.15,0,0,0,331.84,75.57C228.72,59,130.68,128.81,112.68,231.79c-1.14,6.55-1.67,13.21-2.57,19.8a4,4,0,0,0,2.19,4.59c12.11,7.43,18.39,18.31,18.43,32.57q.12,36.94,0,73.91c-.06,21.54-16.55,37.91-38.11,37.91-21.86,0-38.43-16.2-38.49-37.87q-.1-37,0-73.92c0-14.55,6.5-25.56,19-33a4.5,4.5,0,0,0,2.53-4.18C81.72,147.27,159.38,59.89,262.07,42.07c7.49-1.3,15.09-1.93,22.64-2.89,1-.13,2.07-.4,3.1-.61Z" transform="translate(-26.81 -38.57)"/><path d="M316.7,455c-7.33.11-14.68.67-22,.24-29.59-1.7-55.32-13.33-77.52-32.53-41-35.54-63.54-80.59-65.46-135-2.45-69.09,47.15-132.79,114.6-148.51,82.7-19.27,163.23,31,181.82,113.91,7.49,33.37,3,65.82-10,97.12-4.09,9.84-9.49,19.16-14.55,28.57a7.75,7.75,0,0,1-4.56,3.34q-11.25,2.77-22.66,4.81a8.48,8.48,0,0,1-5.5-1.32c-6.2-4-12.79-7.09-20.24-7.24-12.24-.26-24.54-.67-36.75.08a39.85,39.85,0,0,0-35.8,29.67c-4.5,16.66,1.82,33.8,16.22,44,.86.6,1.69,1.22,2.53,1.84Z" transform="translate(-26.81 -38.57)"/></svg>