<svg id="Layer_1" data-name="Layer 1" xmlns="http://www.w3.org/2000/svg" viewBox="0 0 273.25 182.25"><path d="M-.62,146.85c12.07-4.58,24.12-3.13,36.14.25,6.86,1.93,13.83,3.59,20.5,6S69,154.6,75.4,152.37c7.19-2.48,14.48-4.72,21.84-6.64,9.47-2.47,18.37-.36,26.88,4.14,18.23,9.64,14.11,9.55,31.43-.19,12.45-7,25-6.82,37.75-1.31,20.31,8.79,17.25,9.14,35.32-2.19,11.26-7.07,22.9-6.75,34.82-2.09,3.08,1.2,6.12,2.5,9.18,3.76v26.93c-5.68-2.26-11.46-4.3-17-6.84-6.13-2.81-11.43-2.43-17.23,1.41a78.31,78.31,0,0,1-18.52,9.32c-11.15,3.65-21.71-.22-31.53-5.31-9.31-4.82-17.52-4.84-26.37,1.41-13.49,9.53-28,10-41.91,1-10.13-6.62-19.94-6.82-30.47-2a29.44,29.44,0,0,1-5.59,2c-6.26,1.44-12.7,4.29-18.8,3.71-9.93-.93-19.76-3.74-29.42-6.49-12.44-3.54-24.58-5.54-36.39,1.74Z" transform="translate(0.62 0)"/><path d="M212,137.44c-5.19-1.95-10.45-3.75-15.56-5.91-9.6-4-19.38-7.48-29.85-4.4-5.33,1.57-10.31,4.4-15.35,6.86-7,3.42-15.1,4-21,.51-16.84-10-33.3-9.31-50.43-1.95-9.45,4-19.06,2.45-29,.16,1.12-.72,2.18-1.52,3.34-2.14Q92,110.2,129.9,89.88c1.31-.71,2.65-1.39,3.91-2.18,5-3.13,5.53-5.1,2.67-10.21-5.17-9.27-10.53-18.43-15.61-27.74A100.13,100.13,0,0,1,113.82,35c-3.21-9.19,0-16.2,9.33-18.59,10.72-2.75,21.75-4.3,32.68-6.17C175.44,6.9,195.09,3.8,214.69.41,228.08-1.9,238,5.72,237.84,18.62c-.06,7.76-4.17,13-11.82,14.29-13.91,2.26-27.86,4.21-41.79,6.29-5.58.83-11.16,1.59-16.73,2.46-3.8.6-5.23,2.74-3.62,6.36,1.2,2.72,2.56,5.38,4,8q21.94,38.71,43.94,77.42A23.39,23.39,0,0,1,213,136Z" transform="translate(0.62 0)"/><path d="M197.73,85.13c-.11-16.92,13.93-31,31-31A31.21,31.21,0,0,1,260,85a30.84,30.84,0,0,1-31.05,31.38C211.5,116.47,197.85,102.81,197.73,85.13Z" transform="translate(0.62 0)"/></svg>