<svg id="Layer_1" data-name="Layer 1" xmlns="http://www.w3.org/2000/svg" viewBox="0 0 774.39 749.98"><path d="M528.31,577.54c-143.83,113.39-342.61,84.76-452-44.36C-28.14,409.82-25.14,226.73,84,106.71,195.49-15.86,378.86-35.63,514.43,61.93c77.37,55.68,121.76,132.47,131.86,227.3s-18.3,178.26-80,250.89L774.4,709.35,741.4,750ZM324.64,52.46C174,53,52.64,175.18,53.27,325.55c.64,149.59,122.59,270.58,272.34,270.31,149.09-.28,270.83-123.09,270.17-272.53S473,51.92,324.64,52.46Z" transform="translate(0 0)"/><path d="M383.86,195.25a38.07,38.07,0,0,0,37.63,38.21h.37a37.32,37.32,0,0,0,26.29-10.92,38,38,0,1,0-64.29-28.4v1.11Z" transform="translate(0 0)"/><path d="M309,238.84a22.78,22.78,0,0,1,11.12,2.62c8,4.47,15.38,9.46,23.2,14.76,3,2,6,4.07,9.18,6.16L366,271.24l-11.76,10.92c-6,5.61-11.93,11.29-17.63,16.78-12.95,12.52-25.18,24.28-38.7,35.22-12.19,9.86-18.53,19.69-17.4,26.95s10.08,14.6,24.56,20.25c15,5.86,29.66,13.14,43.81,20.18,6.42,3.19,13.06,6.5,19.72,9.65l13.17,6.27-8.05,12.16q-7.23,10.92-14.23,21.36c-10.87,16.27-21.12,31.64-31.17,47.31-5.7,8.92-4.13,19.17,3.74,24.37s18.27,2.84,24-5.63c24-35.32,45-66.87,64.06-96.44,2.24-3.48,4.6-8.79,3.09-14.33-1.26-4.62-5.12-8.75-10.92-11.63-11.62-5.82-23.65-11.48-35.3-17-6.31-3-12.84-6-19.25-9.1-3.08-1.46-6-3.06-9.18-4.74-1.51-.81-3.1-1.66-4.84-2.57L327.92,353l13-12.16q9.81-9.18,19.29-17.95C374.5,309.58,388,297,401.47,284.23c4.2-4,9.1-10.12,8.54-16.71-.53-6.41-6.13-11.48-10.75-14.6-11.61-7.8-23.44-15.65-35-23.24-12.12-8-24.65-16.24-36.9-24.57-7-4.77-13.64-5.59-22.11-2.73-13.84,4.7-27.94,9.3-41.58,13.76-10.76,3.51-21.84,7.14-32.76,10.78-7.62,2.55-13.09,6.56-15.39,11.3-1.75,3.58-1.82,7.76-.12,12.44,4.93,13.84,20.93,9.89,25.72,8.34,7.11-2.29,14.35-4.69,21.35-7,11.5-3.8,23.4-7.74,35.24-11.39A39.47,39.47,0,0,1,309,238.84Z" transform="translate(0 0)"/><path d="M282.34,354.78c-4.55,7.08-8.65,13.57-12.41,20.27-7.2,12.86-17.38,22.46-32,30.22-22.83,12.1-45.82,25-68.05,37.38L149.58,454c-6.73,3.74-11.2,8.58-12.61,13.64a15,15,0,0,0,1.82,11.58c6.8,11.92,18.73,8.65,27.54,3.79,9.2-5.08,18.53-10.5,27.55-15.75,20.33-11.83,41.35-24,63.42-33.76s33.14-27.72,45.9-48.54c2.14-3.49,4.32-7,6.58-10.61C300.13,369.81,289.94,364.17,282.34,354.78Z" transform="translate(0 0)"/><path d="M390.86,294l.4.31c8.77,6.82,17,13.26,25.61,19.05,6.69,4.55,14.25,3.76,19.74-1.93,23.54-24.45,46-48.58,66.67-71.74,5.17-5.78,4-14.72-.11-20-4.91-6.37-12.82-8.5-19.22-5.25-3.92,2-7.83,5.76-11.15,9.19-10,10.32-20,21.08-29.71,31.5l-11.62,12.45-7.53,8-13.44-9.48c-3.88,11.73-11.82,20.45-19.64,27.89Z" transform="translate(0 0)"/></svg>