<svg id="Layer_1" data-name="Layer 1" xmlns="http://www.w3.org/2000/svg" viewBox="0 0 715 715"><path d="M847.16,183c14.69,9.46,19.68,22.85,19.4,40.24-.77,48.15-.2,96.31-.29,144.47,0,27.9-10.55,37-38.11,39.05-18.92,1.43-28.6-5.49-38.43-21.42C726.56,283,605.84,229.43,490.11,250.75c-122.18,22.5-216.89,115.87-239.44,236.67-2.69,14.47-3.44,29.39-4,44.14-.89,24.56-8.82,37.88-26.19,41.69-14.23,3.12-26.83-5.21-37.5-24.81V526.2c2.37-17.13,3.56-34.51,7.3-51.34C220.9,337,302.12,241.76,437.37,201.15c134.87-40.5,255.55-7.51,357.67,90.38,2.35,2.25,5,4.14,9.6,7.87,0-28.12.62-53.42-.21-78.68-.57-17.15,5.22-29.72,20.48-37.72Z" transform="translate(-183 -183)"/><path d="M516.67,898c-26.29-5.24-53-8.92-78.78-16C385.62,867.5,340,840.46,299.84,804c-3.14-2.85-6.17-5.81-9.35-8.6-.72-.63-1.87-.76-5.34-2.09,0,23.3.26,45.69-.08,68.08-.28,19.43-13.8,32.85-31.52,32.08-16.25-.7-29.21-12.77-29.35-29.54-.44-54-.63-108,.05-161.93.29-23.09,33.53-40.83,52.6-28.85,2.8,1.76,4.08,6,5.89,9.23C329.61,765.19,399.38,815.57,493.46,832c151.13,26.36,303.38-76.64,334.25-226.8a366.1,366.1,0,0,0,6.49-53.36c1.28-23.06,8.57-35.71,24.94-38.84,18.42-3.51,28.9,3.49,38.86,25.94v9.53c-.86,5.71-2.16,11.38-2.52,17.12-9,143.72-106,269.57-243.42,313.27-28.4,9-58.44,12.91-87.73,19.17Z" transform="translate(-183 -183)"/><path d="M541,771c-126.86.55-230.64-102.42-231-229.2C309.6,414.21,411.86,310.45,538.37,310,666.93,309.59,770.58,411.7,771,539.2A230.27,230.27,0,0,1,541,771Zm-62.54-218.7c0,30.1-.11,57.58,0,85.06.11,21.2,9.75,31.15,30.72,31.47,19,.29,38.08.1,57.12.06,28.36-.07,36.34-8.18,36.38-37,0-26.22,0-52.43,0-79.77,16.5,0,30.7.23,44.9,0,20.91-.41,29.35-15.49,18.24-33.2a108.81,108.81,0,0,0-16.16-19.46q-46.46-45.53-93.41-90.53c-10.36-9.95-21.44-9.72-32,.47-30.52,29.29-61,58.61-91.23,88.22a119,119,0,0,0-18.11,21.93c-10.49,17-2.13,32.09,17.71,32.69C447.24,552.64,462,552.29,478.41,552.29Z" transform="translate(-183 -183)"/></svg>