<svg xmlns="http://www.w3.org/2000/svg" width="18.131" height="20" viewBox="0 0 18.131 20">
  <g id="Weightlifting" transform="translate(0 0.002)">
    <path id="Path_7321" data-name="Path 7321" d="M12.927,8.341H12.24c-.212,1.148-.416,2.293-.635,3.436-.331,1.715-.649,3.431-1.011,5.139a1.023,1.023,0,0,0,.338,1.078A23.032,23.032,0,0,1,12.54,19.7a1.4,1.4,0,0,1,.337.8c.032,1.44,0,2.88.022,4.32.006.48-.17.662-.652.649-2.07-.046-1.8.28-1.73-1.7a2.418,2.418,0,0,0-1.169-2.383c-1.273-.857-1.188-.86-2.458-.005a2.421,2.421,0,0,0-1.179,2.383c.075,1.986.338,1.66-1.721,1.706-.471.011-.669-.148-.662-.639.019-1.46-.006-2.921.02-4.382a1.191,1.191,0,0,1,.289-.7C4.209,19.1,4.835,18.5,5.4,17.85a1.016,1.016,0,0,0,.235-.735c-.529-2.908-1.1-5.809-1.662-8.753H3.3V9.852a.61.61,0,0,1-.68.692c-.411,0-.824.02-1.234,0A2.17,2.17,0,0,1-.141,8.932c-.005-.181,0-.361,0-.575L-.9,8.3-.95,7.754l.807-.087c0-.218-.011-.419,0-.618.012-.161,0-.4.092-.468.55-.4.884-1.112,1.729-1.1C3.34,5.5,3.328,5.389,3.3,7.092a1.469,1.469,0,0,0,.144.7A3.474,3.474,0,0,0,4.1,7.327a1,1,0,0,1,1.626.066.747.747,0,0,0,.5.3q1.882.039,3.765,0A.738.738,0,0,0,10.5,7.4a.99.99,0,0,1,1.662-.038,3.887,3.887,0,0,0,.771.524V6.179a.608.608,0,0,1,.681-.688c.412,0,.824-.018,1.234,0a2.152,2.152,0,0,1,1.527,1.6c0,.181,0,.362,0,.576l.755.058c.017.172.035.343.056.547l-.811.085c0,.218.011.418,0,.617-.012.161,0,.4-.091.469-.546.411-.889,1.113-1.731,1.105-1.651-.015-1.648.08-1.619-1.618C12.93,8.756,12.927,8.574,12.927,8.341Zm-6.959.014c.12.639.257,1.24.335,1.847a.985.985,0,0,1-.153.647,2.519,2.519,0,1,0,3.91-.017.9.9,0,0,1-.146-.6c.085-.622.222-1.237.344-1.884Z" transform="translate(0.95 -5.48)"/>
    <path id="Path_7322" data-name="Path 7322" d="M105.211,77.94a2.146,2.146,0,0,1,2.174,2.184,2.184,2.184,0,0,1-4.365-.017A2.147,2.147,0,0,1,105.211,77.94Z" transform="translate(-96.138 -73.145)"/>
  </g>
</svg>
