<svg id="Layer_1" data-name="Layer 1" xmlns="http://www.w3.org/2000/svg" viewBox="0 0 273.95 302.09"><path d="M208.72,48.73H198.33c-3.2,17.35-6.29,34.65-9.59,51.91-5,25.91-9.8,51.84-15.28,77.64-1.48,7,.11,11.49,5.11,16.28a348,348,0,0,1,24.29,25.78c2.74,3.22,5,8,5.09,12.14.49,21.75.05,43.52.33,65.27.09,7.25-2.57,10-9.85,9.81-31.27-.69-27.23,4.23-26.14-25.61.6-16.37-4-26.84-17.66-36-19.24-12.95-17.95-13-37.13-.08-13.61,9.15-18.43,19.5-17.81,36,1.13,30,5.11,25.08-26,25.77-7.12.16-10.11-2.24-10-9.65.29-22.06-.09-44.14.3-66.21a18,18,0,0,1,4.36-10.57C77,211.32,86.45,202.27,95,192.4c2.37-2.76,4.18-7.67,3.55-11.1-8-43.93-16.58-87.77-25.11-132.24H63.27c0,7.69,0,15.09,0,22.49C63.25,78.38,59.84,82,53,82c-6.21.07-12.45.3-18.64-.06-9.07-.52-22.84-15.24-23.08-24.29-.08-2.73,0-5.46,0-8.69L-.21,48.12l-.74-8.26,12.2-1.32c0-3.29-.17-6.33.05-9.34.18-2.44-.05-6,1.39-7.07C21,16.05,26.05,5.33,38.81,5.48c25.06.3,24.88-1.35,24.47,24.38a22.19,22.19,0,0,0,2.17,10.55c3.35-2.31,7.32-4.07,9.92-7,7.2-8.2,18.21-7.78,24.56,1,1.61,2.23,4.94,4.48,7.53,4.53q28.44.59,56.88,0c2.62,0,6-2.17,7.63-4.38,6.65-9.27,17.71-9.5,25.11-.57,2.34,2.83,6.26,4.35,11.65,7.92,0-11,0-18.44,0-25.85,0-6.84,3.4-10.37,10.29-10.4,6.22,0,12.45-.27,18.65.06,9.09.49,22.82,15.11,23.07,24.24.07,2.73,0,5.47,0,8.7l11.41.88c.26,2.6.53,5.18.84,8.26l-12.25,1.29c0,3.29.16,6.32-.05,9.32-.18,2.44.06,6-1.38,7.08-8.25,6.21-13.43,16.82-26.15,16.7-24.94-.23-24.9,1.21-24.46-24.44C208.76,55,208.72,52.25,208.72,48.73Zm-105.14.21c1.82,9.66,3.88,18.73,5.06,27.91a14.88,14.88,0,0,1-2.31,9.78c-12.15,16.83-10.84,38.08,3.64,51.63a38,38,0,0,0,51.63.39c14.92-13.49,16.33-34.95,3.8-52.27a13.57,13.57,0,0,1-2.21-9c1.29-9.4,3.35-18.69,5.2-28.46Z" transform="translate(0.95 -5.48)"/><path d="M136.13,77.94c18.56,0,33.13,14.69,32.84,33a33,33,0,0,1-65.95-.26C102.91,92.32,117.49,77.89,136.13,77.94Z" transform="translate(0.95 -5.48)"/></svg>