<svg id="Timeline" xmlns="http://www.w3.org/2000/svg" viewBox="0 0 54.1 33.06"><defs><style>.cls-1{fill:#4db748;}.cls-1,.cls-2{fill-rule:evenodd;}.cls-2{fill:#f37022;}.cls-3{isolation:isolate;}.cls-4{fill:#1e174a;}</style></defs><title>KHELO INDIA LOGO</title><path id="Path_118" data-name="Path 118" class="cls-1" d="M2.72,33.06,0,30.34,16.52,13.81l.12.08.14.13,7.78,7.78.21.22c-.08.14-8,8-8.2,8.23l-2.71-2.71,1.07-1.07L16,25.36l1.1-1.1,1.11-1.11,1.08-1.08-2.81-2.8c-.35.32-.69.68-1,1l-1.06,1.05-1.06,1.07L12.3,23.44l-1.07,1.07-1.07,1.07L9.1,26.68,8,27.74,7,28.81,6,29.87,4.84,30.94,3.78,32Z"/><path id="Path_119" data-name="Path 119" class="cls-2" d="M16.6,2.74,24.87,11c.33-.3.63-.62.93-.92l.93-.93.9-.91.93-.93.92-.92.92-.92c.15.08,2.6,2.53,2.72,2.69l-8.27,8.27c-.35-.31-.68-.67-1-1l-1-1-1-1-1-1-1-1-1-1-1-1L16.56,8.15l-2.78,2.79L11.1,8.24Z"/><path id="Path_120" data-name="Path 120" class="cls-1" d="M24.87,5.33,22.2,2.66,24.86,0l2.66,2.66C27.47,2.76,25.18,5.08,24.87,5.33Z"/><g class="cls-3"><path class="cls-4" d="M33,18.4l-.62-2.94h0l-.46,2.94H30.16l1-6.4H32.9l-.43,2.73h0L33.86,12h1.83l-1.88,3.09,1,3.31Z"/><path class="cls-4" d="M38.09,18.4l.42-2.6h-.83l-.41,2.6H35.54l1-6.4h1.74l-.37,2.29h.83L39.11,12h1.73l-1,6.4Z"/><path class="cls-4" d="M41.87,12h3.21l-.23,1.51H43.36l-.14.89h1.33l-.24,1.51H43l-.15,1h1.48l-.24,1.51H40.86Z"/><path class="cls-4" d="M45.09,18.4l1-6.4h1.73l-.78,4.89h1.3l-.24,1.51Z"/><path class="cls-4" d="M52.11,11.89c1.75,0,2.16,1.75,1.92,3.31s-1.21,3.31-3,3.31-2.17-1.75-1.92-3.31S50.35,11.89,52.11,11.89Zm-.8,5c.66,0,.89-1.3.95-1.7s.24-1.7-.41-1.7-.88,1.3-1,1.7S50.66,16.9,51.31,16.9Z"/></g><g class="cls-3"><path class="cls-4" d="M29,25.9l1-6.4h1.73l-1,6.4Z"/><path class="cls-4" d="M32.75,19.5H34.4l.77,3.86,0,0c.05-.74,0-1.47.15-2.21l.26-1.63h1.67l-1,6.4H34.59l-.71-3.69v0c-.06.6-.08,1.19-.17,1.8l-.3,1.87H31.74Z"/><path class="cls-4" d="M38.29,19.5h1.39c2,0,2.83,1.24,2.53,3.18-.47,2.95-2.37,3.22-3.42,3.22H37.28Zm1,4.86c.79,0,1.08-1,1.18-1.6s.12-1.66-.66-1.66Z"/><path class="cls-4" d="M42.53,25.9l1-6.4h1.73l-1,6.4Z"/><path class="cls-4" d="M48.06,25.9v-.82H46.9l-.28.82H44.84l2.55-6.4H49.5l.35,6.4Zm0-2.18,0-1.48c0-.4,0-.81.06-1.21h0c-.11.4-.22.81-.35,1.21l-.47,1.48Z"/></g></svg>